<svg width="1000" height="1000" viewBox="0 0 1000 1000" fill="none" xmlns="http://www.w3.org/2000/svg">
<path d="M551.025 272.461H441.895L368.896 281.494L289.062 309.326L231.445 359.375L205.811 427.734L218.994 470.215L239.014 486.084L260.986 492.676L323.486 483.154L316.406 494.873L296.875 544.922L303.223 597.656L283.203 606.934L218.994 656.25L184.814 718.506L179.443 759.766L175.781 781.982L204.346 788.574L228.516 768.555L215.332 758.057L212.158 743.164L222.412 708.252L260.986 672.363L294.678 651.123L303.223 716.797L337.646 781.982L278.076 821.045L258.301 856.689L278.076 865.234L424.805 810.303L461.182 768.555L505.615 750.488L545.898 771.973L601.074 821.045L764.404 839.355L771.24 828.369L731.445 794.922L678.467 770.264L699.951 708.496L692.627 628.174L699.951 623.047L764.404 664.795L787.842 710.938L783.203 738.77L823.486 734.375V716.797L811.279 676.025L768.311 616.455L692.139 566.65L699.951 530.273L683.35 489.502L642.578 452.148C660.706 460.661 686.279 468.262 692.871 470.459C699.463 472.656 731.265 477.911 756.104 466.309C777.59 454.891 784.264 445.3 786.865 422.363L768.311 375.977L732.91 332.031L667.969 293.457L551.025 272.461Z" fill="currentColor"/>
<path d="M506.836 264.942C506.445 265.04 500.049 265.186 492.676 265.284C485.303 265.381 475.732 265.723 471.436 266.016C467.139 266.358 457.031 266.797 448.975 267.09C438.916 267.432 433.398 267.823 431.397 268.311C429.785 268.702 426.172 269.141 423.34 269.288C420.508 269.434 416.992 269.678 415.527 269.874C414.063 270.069 411.426 270.264 409.668 270.313C406.592 270.411 403.662 270.606 395.996 271.29C393.994 271.436 391.113 271.875 389.648 272.266C388.184 272.657 386.084 272.95 384.912 272.95C382.813 272.95 378.223 273.975 376.611 274.805C376.123 275.049 374.316 275.391 372.607 275.586C369.287 275.879 359.961 277.93 356.689 279.053C355.615 279.444 353.857 279.883 352.783 280.079C351.709 280.274 349.902 280.811 348.73 281.299C347.607 281.788 345.166 282.471 343.359 282.764C341.553 283.057 339.404 283.741 338.574 284.229C337.744 284.766 336.67 285.157 336.23 285.157C335.791 285.157 334.033 285.792 332.373 286.573C330.664 287.305 328.076 288.233 326.611 288.575C325.147 288.917 323.486 289.502 322.852 289.893C322.217 290.284 319.678 291.26 317.236 292.042C314.746 292.872 312.305 293.799 311.719 294.19C311.182 294.532 307.861 295.997 304.395 297.364C293.604 301.758 287.061 305.323 275 313.428C265.186 319.971 265.43 319.825 264.746 319.825C264.355 319.825 262.5 321.241 260.596 322.999C258.691 324.756 256.885 326.172 256.592 326.172C255.908 326.172 255.664 326.417 246.826 335.694C242.822 339.942 237.695 345.313 235.449 347.608C229.199 354.053 228.125 355.616 222.754 365.967C222.314 366.749 221.289 368.409 220.41 369.629C219.531 370.85 218.164 373.292 217.334 375.147C216.504 376.954 215.234 379.346 214.502 380.518C212.109 384.229 210.303 388.233 207.568 395.752C206.982 397.364 206.201 399.317 205.811 400.147C204.639 402.686 203.418 407.52 202.637 412.354C202.344 414.209 201.758 416.749 201.367 417.969C200.977 419.19 200.684 421.534 200.684 423.194C200.684 424.854 200.391 427.784 200.049 429.786C199.316 433.838 199.414 443.653 200.244 447.754C201.221 452.735 203.272 459.229 204.15 460.401C204.688 461.036 205.078 462.012 205.078 462.598C205.078 463.184 205.42 464.112 205.811 464.698C206.201 465.235 207.275 467.188 208.203 468.946C209.131 470.752 210.4 472.852 211.035 473.633C211.67 474.415 213.281 476.514 214.6 478.272C218.213 483.057 223.779 487.598 231.982 492.579C234.326 493.995 236.67 495.118 237.207 495.118C237.793 495.118 238.965 495.557 239.844 496.045C240.723 496.583 242.578 497.168 243.897 497.364C245.264 497.51 246.68 497.852 247.07 498.047C247.803 498.438 254.395 499.317 260.742 499.854C262.5 500 265.723 500.098 267.92 500.049C270.117 500 272.314 500.147 272.803 500.391C273.779 500.928 284.326 500.342 288.086 499.561C290.723 498.975 297.705 497.803 302.539 497.12C304.492 496.827 306.397 496.436 306.836 496.29C308.203 495.752 307.715 497.315 305.42 500.538C302.832 504.249 297.607 514.551 296.875 517.432C296.582 518.555 296.045 520.069 295.654 520.85C295.264 521.583 294.922 522.608 294.922 523.096C294.922 523.584 294.385 525.586 293.75 527.491C293.066 529.444 292.529 531.788 292.529 532.715C292.529 533.643 292.285 535.743 291.943 537.354C291.26 541.065 291.113 542.53 290.479 551.758C289.453 567.09 289.941 582.178 291.797 590.235C292.432 593.116 292.969 595.801 292.969 596.192C292.969 597.12 288.037 599.854 284.033 601.124C282.422 601.612 280.566 602.54 279.785 603.174C279.053 603.809 277.539 604.493 276.465 604.639C275.391 604.834 274.268 605.274 273.975 605.665C273.633 606.055 272.754 606.495 272.022 606.69C271.24 606.836 270.117 607.52 269.531 608.204C268.897 608.838 268.066 609.375 267.676 609.375C267.285 609.375 266.016 610.206 264.844 611.182C262.061 613.672 258.301 616.407 256.543 617.334C255.762 617.725 254.248 618.897 253.174 619.874C252.1 620.85 250.439 622.168 249.512 622.803C248.584 623.438 247.022 624.659 246.094 625.538C245.166 626.465 243.066 628.077 241.455 629.151C239.844 630.225 237.402 632.178 236.084 633.497C234.717 634.766 232.227 637.11 230.469 638.624C225.83 642.676 217.285 651.124 217.285 651.709C217.285 651.954 215.967 653.711 214.355 655.567C212.744 657.422 211.426 659.229 211.426 659.522C211.426 659.864 211.182 660.157 210.938 660.157C210.645 660.157 210.205 660.645 209.961 661.231C209.326 662.647 208.398 664.161 207.715 664.795C207.422 665.04 206.201 666.602 205.029 668.213C203.809 669.825 201.514 672.901 199.951 675C196.68 679.346 197.022 678.711 191.797 688.965C189.648 693.116 187.695 696.729 187.5 697.022C186.084 698.78 179.59 712.94 178.467 716.553C177.783 718.946 176.953 721.485 176.66 722.168C176.367 722.852 176.074 724.463 175.977 725.782C175.879 727.1 175.439 728.711 175.049 729.346C174.561 730.03 174.316 731.446 174.365 733.057C174.414 734.473 174.219 736.133 173.877 736.719C173.584 737.305 173.34 738.526 173.34 739.356C173.34 740.235 173.34 741.358 173.291 741.797C173.291 742.286 173.291 745.167 173.291 748.145C173.34 751.172 173.145 754.932 172.9 756.495C172.607 758.057 172.51 759.62 172.656 760.01C172.803 760.401 172.461 761.377 171.924 762.159C171.338 762.94 170.898 763.721 170.898 763.917C170.898 764.063 170.02 766.016 168.994 768.213C167.432 771.436 167.041 772.803 166.992 775.147C166.943 779.59 167.334 781.397 168.994 784.18C169.238 784.571 169.727 785.547 170.117 786.377C170.898 788.135 174.219 791.7 175.439 792.139C175.879 792.334 176.27 792.676 176.27 792.92C176.27 793.848 181.445 794.532 184.375 793.995C185.938 793.702 187.256 793.458 187.354 793.458C187.402 793.458 188.281 792.676 189.258 791.749C190.186 790.821 191.162 790.04 191.357 790.04C191.797 790.04 193.604 791.7 194.189 792.579C195.508 794.727 201.074 797.51 202.979 797.071C205.811 796.436 210.205 793.897 211.23 792.334C211.768 791.456 212.891 789.795 213.721 788.575C214.551 787.354 215.332 785.938 215.43 785.401C215.576 784.62 215.918 784.473 217.285 784.571C218.213 784.668 219.385 784.961 219.873 785.206C221.875 786.329 227.686 783.057 229.98 779.493C231.006 777.979 231.006 773.975 229.932 769.336C229.395 766.797 229.053 766.309 225.879 763.526C223.975 761.915 221.191 759.327 219.727 757.911C217.139 755.323 217.041 755.127 216.504 751.514C215.674 745.948 216.357 742.286 219.629 734.278C220.703 731.69 221.729 728.809 221.924 727.93C222.119 727.051 222.559 725.831 222.949 725.245C223.34 724.659 223.633 723.926 223.633 723.633C223.633 723.389 224.17 722.022 224.805 720.704C225.488 719.336 226.172 717.53 226.318 716.7C226.709 715.04 228.369 711.915 229.346 711.182C229.688 710.889 230.518 709.961 231.201 709.034C232.52 707.178 240.088 698.829 242.432 696.631C243.262 695.85 245.313 694.239 247.07 692.969C248.828 691.749 251.807 689.502 253.662 687.94C255.566 686.426 257.324 685.108 257.666 685.01C258.496 684.717 267.627 677.295 270.654 674.415C271.143 673.975 272.168 673.243 272.949 672.852C273.682 672.461 275.488 671.485 276.953 670.752C278.369 669.971 280.322 668.653 281.25 667.774C284.18 664.991 288.525 662.012 289.209 662.256C289.697 662.452 289.893 664.063 289.941 668.555C290.137 678.907 291.895 693.018 294.238 703.125C295.557 708.79 295.947 710.596 296.875 716.309C297.852 722.315 299.951 730.42 301.025 732.422C301.367 733.106 302.246 735.547 302.979 737.891C303.711 740.284 304.492 742.286 304.736 742.481C304.98 742.627 305.176 743.165 305.176 743.653C305.176 744.141 305.713 745.215 306.397 745.997C307.08 746.827 307.617 747.657 307.617 747.95C307.617 748.78 309.961 753.809 310.498 754.151C310.791 754.297 311.035 754.786 311.035 755.225C311.035 755.616 311.475 756.543 311.963 757.276C312.451 757.959 314.16 761.036 315.723 764.063C317.334 767.139 318.848 769.971 319.092 770.411C321.24 773.926 322.754 776.026 324.805 778.418L327.197 781.202L325.732 781.934C324.951 782.374 323.828 782.715 323.291 782.715C322.754 782.715 321.729 783.252 320.996 783.936C320.264 784.62 319.385 785.157 318.994 785.157C318.652 785.157 318.213 785.499 318.066 785.889C317.871 786.329 316.309 787.5 314.502 788.575C312.744 789.649 309.326 792.09 306.885 793.995C304.492 795.899 301.904 797.706 301.172 798.047C300.488 798.34 298.291 800.049 296.289 801.856C292.285 805.469 285.84 810.743 283.545 812.305C282.666 812.891 280.176 815.137 277.93 817.334C275.732 819.532 273.73 821.29 273.535 821.29C272.949 821.29 269.922 824.61 267.725 827.637C266.602 829.102 264.6 831.543 263.184 833.008C261.768 834.473 260.205 836.573 259.717 837.647C259.229 838.721 258.301 840.333 257.617 841.26C256.885 842.188 256.348 843.165 256.348 843.36C256.348 843.604 255.811 844.629 255.127 845.655C254.492 846.729 253.809 848.194 253.662 848.975C253.32 850.489 252.734 852.051 251.66 854.151C250.83 855.811 250.781 859.815 251.514 863.379C251.904 865.235 252.539 866.504 253.857 867.823C256.006 870.118 257.227 870.752 260.889 871.485C262.402 871.827 264.844 872.315 266.309 872.608C268.262 873.047 269.873 873.047 272.559 872.608C274.512 872.315 278.369 871.729 281.152 871.338C283.984 870.899 289.404 869.483 293.555 868.116C297.559 866.797 301.221 865.723 301.611 865.723C302.051 865.723 303.076 865.284 303.955 864.747C304.834 864.209 306.934 863.331 308.594 862.793C310.303 862.256 311.914 861.622 312.207 861.377C312.5 861.133 313.867 860.645 315.186 860.303C317.432 859.766 324.658 856.69 330.908 853.663C332.275 853.028 334.912 852.051 336.768 851.563C338.574 851.075 340.967 850.342 342.041 849.903C343.115 849.512 344.482 849.17 345.02 849.122C345.605 849.122 346.631 848.682 347.314 848.145C347.998 847.608 348.828 847.168 349.17 847.168C349.463 847.168 350.879 846.631 352.295 845.948C353.711 845.313 356.348 844.288 358.203 843.702C360.059 843.067 362.354 842.09 363.281 841.456C364.209 840.821 365.186 840.333 365.479 840.333C366.357 840.333 373.242 837.305 374.121 836.573C374.561 836.182 376.416 835.45 378.272 834.961C381.934 833.985 385.059 832.764 385.449 832.081C385.742 831.641 388.867 830.469 394.775 828.614C396.68 827.979 399.17 827.002 400.439 826.417C401.66 825.782 403.467 825.098 404.492 824.952C405.469 824.756 407.422 824.073 408.74 823.389C410.107 822.754 413.525 821.68 416.357 820.997C419.189 820.362 422.119 819.336 422.9 818.848C423.633 818.311 424.512 817.872 424.902 817.872C426.123 817.872 428.662 815.967 430.127 813.965C430.957 812.842 432.52 811.28 433.691 810.547C436.328 808.741 450.586 793.897 451.807 791.7C452.588 790.235 456.104 786.133 456.543 786.133C456.787 786.133 458.838 784.327 461.084 782.129C465.234 777.979 466.992 776.465 472.022 772.315C481.006 764.942 481.152 764.844 483.984 764.209C485.547 763.868 486.963 763.331 487.158 762.989C487.598 762.305 491.26 760.45 493.75 759.717C498.389 758.252 501.318 757.911 505.127 758.35C510.156 758.887 510.986 759.131 513.574 760.938C514.746 761.768 516.064 762.647 516.504 762.94C519.141 764.6 525.781 769.19 529.541 771.973C531.982 773.731 534.375 775.538 534.961 775.928C535.547 776.319 537.598 778.028 539.551 779.786C541.504 781.543 544.189 783.936 545.557 785.157C546.973 786.377 549.609 789.014 551.514 791.016C553.369 793.018 556.592 796.29 558.594 798.34C560.596 800.342 562.939 802.784 563.77 803.711C564.6 804.639 566.113 806.25 567.188 807.227C568.213 808.204 569.531 809.522 570.117 810.157C573.731 814.161 585.205 823.975 588.574 825.977C590.137 826.905 592.529 827.881 593.848 828.125C595.166 828.418 596.533 828.76 596.826 828.956C597.119 829.151 598.389 829.346 599.609 829.395C600.83 829.444 603.369 829.737 605.225 830.03C610.156 830.909 614.111 831.397 621.826 832.227C625.586 832.618 629.395 833.106 630.273 833.252C631.738 833.545 640.772 834.717 645.508 835.254C648.047 835.547 654.736 836.377 659.326 836.963C661.523 837.256 664.99 837.696 666.992 837.94C668.994 838.184 671.631 838.575 672.852 838.868C675 839.356 681.885 840.04 690.918 840.772C693.457 840.967 696.045 841.358 696.631 841.7C697.217 842.042 698.34 842.286 699.072 842.286C699.854 842.286 701.66 842.579 703.174 842.969C704.639 843.36 709.473 844.141 713.867 844.678C718.311 845.264 723.047 845.997 724.365 846.387C725.732 846.729 727.686 847.071 728.76 847.12C729.834 847.12 733.301 847.413 736.426 847.754C743.359 848.438 759.473 847.608 761.963 846.436C762.793 846.045 765.088 845.02 767.09 844.19C771.338 842.432 771.973 841.944 773.926 838.965C775.537 836.524 775.732 834.668 774.854 829.786C774.512 827.881 773.731 826.026 772.51 824.219C771.533 822.754 770.41 820.801 770.068 819.922C769.727 819.092 769.238 818.36 769.043 818.36C768.897 818.36 766.748 816.163 764.356 813.428C761.963 810.694 759.033 807.813 757.813 806.983C756.592 806.153 753.516 803.76 750.928 801.661C748.34 799.561 745.947 797.852 745.606 797.852C745.264 797.852 742.481 796.29 739.404 794.434C736.328 792.53 733.643 791.016 733.496 791.016C732.861 791.016 718.848 783.79 715.772 781.836C714.795 781.25 713.525 780.762 712.891 780.762C712.305 780.762 710.986 780.323 710.01 779.834C706.982 778.174 700.537 775.293 697.803 774.366C696.338 773.829 694.629 773.096 693.994 772.706C693.408 772.315 692.481 771.973 691.992 771.973C691.455 771.973 690.772 771.631 690.43 771.241C690.039 770.801 688.965 770.508 687.647 770.508H685.449L685.791 768.897C685.986 768.067 686.523 766.504 687.061 765.479C687.549 764.454 687.988 763.331 687.988 762.94C687.988 762.549 688.33 761.524 688.672 760.645C689.063 759.766 690.186 756.934 691.113 754.346C692.041 751.807 693.262 748.829 693.799 747.754C694.336 746.729 695.02 744.092 695.361 741.944C695.703 739.795 696.24 737.5 696.631 736.817C696.973 736.133 697.266 734.815 697.266 733.887C697.266 732.959 697.949 730.323 698.731 728.028C699.951 724.756 700.342 722.559 700.732 717.53C700.977 714.014 701.367 710.303 701.611 709.229C703.027 703.272 704.541 691.309 704.785 684.766C704.883 682.129 704.639 677.198 704.248 673.829C703.906 670.459 703.467 664.454 703.32 660.401C703.174 656.397 702.93 652.881 702.783 652.686C702.637 652.442 702.344 650.782 702.1 648.975C701.66 645.655 700.684 640.918 699.707 637.452C698.486 633.155 698.242 633.545 702.295 633.545C705.713 633.545 706.104 633.643 708.594 635.352C710.059 636.377 711.523 637.208 711.816 637.208C712.109 637.208 713.867 638.184 715.674 639.405C717.481 640.625 720.02 641.944 721.338 642.334C724.121 643.165 726.465 644.483 729.492 646.973C730.713 647.999 732.861 649.512 734.277 650.391C735.693 651.221 736.816 652.247 736.816 652.588C736.816 652.93 737.744 653.711 738.916 654.249C740.869 655.225 747.363 661.768 749.121 664.6C749.561 665.284 750.928 666.602 752.148 667.481C753.369 668.409 754.395 669.385 754.395 669.776C754.395 670.118 755.225 671.338 756.25 672.51C757.275 673.633 758.545 675.44 759.033 676.514C759.57 677.588 760.791 679.249 761.719 680.176C762.647 681.153 763.77 682.569 764.16 683.35C765.479 685.889 769.385 691.7 770.703 693.018C771.387 693.702 771.973 694.776 771.973 695.411C771.973 696.045 772.559 697.754 773.242 699.17C773.926 700.635 774.609 702.784 774.756 703.956C774.951 705.372 775.293 706.104 775.928 706.299C776.465 706.495 776.856 706.885 776.856 707.227C776.856 707.618 777.148 708.155 777.539 708.448C778.369 709.131 779.248 712.452 779.59 716.163C779.785 718.262 779.639 719.092 778.613 720.948C777.881 722.168 777.344 723.584 777.344 724.073C777.344 724.561 776.904 725.538 776.367 726.221C775.781 727.002 775.391 728.174 775.391 729.395C775.391 730.518 775.147 731.983 774.854 732.764C774.023 735.01 773.535 740.87 773.975 743.702C774.268 745.606 774.756 746.68 775.781 747.657C777.686 749.366 780.713 750.977 782.129 750.977C784.033 750.977 791.504 747.022 792.92 745.264C794.092 743.799 795.898 743.067 795.898 744.043C795.898 744.239 796.924 745.606 798.242 746.973C800.44 749.463 800.635 749.561 803.223 749.61C807.08 749.708 809.961 748.292 811.914 745.362C812.744 744.092 813.477 742.872 813.574 742.627C813.672 742.383 815.039 742.676 816.65 743.262C821.729 745.215 824.219 744.581 828.809 739.942C832.031 736.719 832.715 735.157 832.227 732.276C831.69 729.346 828.955 721.436 827.881 719.727C827.295 718.799 826.66 717.481 826.465 716.797C826.27 716.114 825.537 715.088 824.854 714.551C823.828 713.672 823.486 712.696 822.949 709.424C821.875 702.686 820.996 698.975 820.166 697.461C819.775 696.68 819.092 694.727 818.652 693.116C818.213 691.504 817.529 689.161 817.139 687.94C816.748 686.67 816.406 685.206 816.406 684.668C816.406 684.083 816.211 683.545 815.967 683.399C815.723 683.204 815.381 682.227 815.186 681.202C814.99 680.127 814.453 678.418 813.916 677.393C813.428 676.417 812.988 675.196 812.988 674.708C812.988 674.268 812.598 673.633 812.061 673.389C811.572 673.096 810.889 672.168 810.498 671.29C810.156 670.411 808.838 667.92 807.568 665.772C806.348 663.624 805.176 661.231 804.981 660.45C804.639 659.034 801.904 655.225 798.145 650.879C797.119 649.659 795.898 647.901 795.459 646.973C795.02 646.045 793.945 644.288 793.066 643.116C792.236 641.944 791.504 640.577 791.504 640.04C791.504 639.551 791.309 639.161 791.065 639.161C790.625 639.161 789.063 637.159 786.328 633.057C782.764 627.735 772.656 616.846 769.19 614.649C768.018 613.917 766.699 612.647 766.162 611.817C764.502 609.083 757.666 602.149 755.615 601.124C754.492 600.586 752.441 599.073 751.074 597.803C747.998 594.922 744.434 592.188 742.334 591.114C740.527 590.235 734.473 585.792 733.398 584.571C732.275 583.35 729.981 581.836 727.539 580.665C725.342 579.59 724.902 579.346 721.631 577.295C720.703 576.661 719.482 576.172 718.945 576.172C718.408 576.172 717.529 575.831 716.992 575.44C716.504 575.049 715.625 574.708 715.039 574.708C714.502 574.708 713.623 574.268 713.135 573.731C712.647 573.194 711.914 572.754 711.475 572.754C711.035 572.754 710.254 572.413 709.766 572.022C709.229 571.631 708.398 571.29 707.91 571.29C707.422 571.29 706.494 570.948 705.859 570.557C705.225 570.118 703.906 569.678 702.93 569.581C701.904 569.434 700.684 569.092 700.195 568.848C699.707 568.555 698.828 568.36 698.291 568.36C697.461 568.36 697.363 568.116 697.607 566.504C697.754 565.528 698.389 563.379 699.023 561.768C699.609 560.157 700.391 557.862 700.684 556.641C701.025 555.42 701.465 554.2 701.66 553.956C702.1 553.418 702.344 551.612 703.223 543.311C704.053 534.961 702.979 528.077 699.17 518.555C698.389 516.553 697.754 514.649 697.754 514.356C697.754 514.112 697.119 512.989 696.338 511.915C695.606 510.889 694.58 508.887 694.092 507.569C693.604 506.202 692.822 504.688 692.383 504.151C691.895 503.614 690.088 500.196 688.281 496.534C686.523 492.92 684.619 489.502 684.033 488.965C683.447 488.477 682.129 486.817 681.104 485.303C680.078 483.741 678.565 481.983 677.734 481.397C674.756 479.102 669.727 474.17 670.02 473.829C670.215 473.682 673.193 474.952 676.611 476.661C682.617 479.688 683.106 479.883 688.232 480.42C691.211 480.713 694.287 481.104 695.068 481.202C695.898 481.299 697.852 481.397 699.463 481.446C701.074 481.495 703.711 481.836 705.322 482.227C706.934 482.569 709.375 482.862 710.693 482.813C712.061 482.813 715.332 482.959 718.018 483.155C725.83 483.79 731.25 483.545 735.107 482.374C737.012 481.788 739.941 481.25 741.699 481.25C743.457 481.202 746.191 480.86 747.803 480.518C749.414 480.176 752.393 479.59 754.395 479.151C760.4 477.881 763.135 476.709 766.065 474.268C769.775 471.094 773.242 467.481 775.049 464.844C775.879 463.624 777.246 461.963 778.076 461.133C781.25 457.911 788.428 446.436 788.818 443.946C789.014 442.92 789.551 440.772 790.088 439.112C791.211 435.499 791.26 431.69 790.283 427.295C789.893 425.538 789.258 422.364 788.867 420.264C788.477 418.165 787.793 415.772 787.354 414.893C786.914 414.014 786.035 410.84 785.352 407.813C784.717 404.786 783.984 401.954 783.691 401.465C783.447 401.026 782.422 398.243 781.445 395.313C778.955 387.891 776.904 383.79 771.729 375.733C770.85 374.366 769.434 371.973 768.506 370.362C767.627 368.75 766.699 367.188 766.504 366.944C765.137 365.284 763.184 361.915 763.184 361.231C763.184 360.792 762.354 359.522 761.279 358.399C760.254 357.276 759.131 355.811 758.74 355.079C757.91 353.467 749.121 343.848 742.383 337.159C735.352 330.225 724.658 321.094 719.385 317.53C716.895 315.87 713.818 313.672 712.549 312.598C711.231 311.524 709.229 310.157 708.057 309.571C706.885 308.985 704.883 307.813 703.662 306.934C701.172 305.225 692.627 300.977 690.576 300.489C689.844 300.293 688.721 299.854 688.037 299.512C687.354 299.122 686.523 298.829 686.231 298.829C685.938 298.829 684.717 298.145 683.496 297.364C682.275 296.534 680.322 295.704 679.15 295.508C677.979 295.264 674.854 293.946 672.168 292.579C669.531 291.163 666.895 290.04 666.26 290.04C665.625 290.04 664.063 289.307 662.793 288.428C661.377 287.452 658.691 286.329 656.25 285.694C653.955 285.059 650.928 284.034 649.463 283.35C648.047 282.715 645.752 281.983 644.385 281.69C643.018 281.446 640.234 280.616 638.232 279.834C634.229 278.321 630.518 277.344 628.809 277.344C627.686 277.344 620.557 275.196 619.043 274.366C618.555 274.122 617.383 273.926 616.455 273.926C615.479 273.926 613.916 273.584 612.94 273.194C612.012 272.803 610.352 272.461 609.326 272.461C608.301 272.461 606.885 272.217 606.104 271.924C605.371 271.631 603.223 271.338 601.318 271.241C599.463 271.143 596.924 270.704 595.752 270.313C594.58 269.874 592.139 269.434 590.283 269.288C588.428 269.19 585.547 268.848 583.887 268.506C582.178 268.213 578.174 267.92 574.951 267.823C562.988 267.53 551.514 266.944 550.781 266.602C550.391 266.407 548.193 266.211 545.898 266.163C543.604 266.163 540.234 265.967 538.33 265.772C536.475 265.528 531.836 265.43 528.076 265.479C517.334 265.674 509.424 265.479 508.301 265.04C507.91 264.893 507.227 264.844 506.836 264.942ZM525.391 278.565C531.689 278.711 542.578 279.249 549.512 279.786C556.494 280.372 563.184 280.762 564.404 280.713C569.238 280.518 583.398 281.397 586.279 282.081C587.94 282.471 589.746 282.667 590.283 282.471C590.82 282.325 591.992 282.569 592.871 283.008C593.75 283.448 595.117 283.79 595.947 283.79C596.729 283.741 598.438 284.083 599.756 284.473C601.025 284.913 602.344 285.157 602.686 285.01C602.979 284.913 603.809 285.059 604.492 285.401C605.176 285.743 606.836 286.036 608.154 286.036C609.522 285.987 611.572 286.377 612.793 286.866C614.014 287.354 615.674 287.745 616.455 287.696C617.285 287.696 620.557 288.526 623.779 289.551C627.002 290.577 630.957 291.651 632.568 291.993C634.18 292.286 636.816 293.067 638.428 293.702C640.039 294.336 642.236 294.971 643.262 295.118C644.336 295.264 646.289 295.899 647.656 296.534C651.367 298.34 652.783 298.877 656.152 299.854C657.861 300.342 659.522 300.928 659.815 301.172C660.791 301.954 673.535 307.52 675.049 307.862C675.879 308.057 677.832 308.936 679.492 309.815C681.104 310.694 684.131 311.963 686.133 312.647C690.283 314.063 692.773 315.235 695.898 317.334C697.07 318.067 699.219 319.288 700.684 320.02C704.346 321.729 713.867 328.711 719.629 333.838C724.707 338.331 726.904 340.186 728.76 341.553C729.834 342.334 732.275 344.629 734.18 346.631C738.525 351.124 738.379 350.928 742.188 354.639C746.436 358.692 748.633 361.573 753.076 368.702C754.346 370.752 755.371 372.608 755.371 372.803C755.371 373.145 760.547 381.202 762.109 383.301C762.647 383.985 763.965 386.377 765.137 388.672C766.26 390.967 767.383 393.165 767.627 393.555C768.75 395.508 769.727 398.145 771.045 402.833C773.34 411.133 773.535 411.817 773.975 413.086C774.414 414.258 776.074 421.29 777.588 428.37C778.223 431.25 778.223 431.983 777.588 434.424C777.197 435.987 776.856 437.549 776.856 437.891C776.856 438.526 774.609 442.334 772.461 445.508C772.07 446.094 771.289 447.315 770.752 448.194C769.385 450.489 762.5 458.79 759.912 461.329C757.471 463.721 753.418 465.235 746.24 466.504C743.897 466.944 740.186 467.627 738.037 468.018C729.981 469.532 726.953 469.727 720.703 469.239C717.334 468.946 712.305 468.604 709.473 468.555C700.586 468.262 695.752 467.823 693.213 467.042C691.846 466.651 689.648 466.309 688.281 466.309C685.791 466.309 684.082 465.674 677.246 462.159C674.707 460.889 666.895 458.008 665.918 458.008C665.332 458.008 663.477 457.227 661.768 456.299C660.059 455.372 658.447 454.59 658.203 454.59C657.91 454.59 655.957 453.711 653.857 452.686C651.709 451.612 649.463 450.635 648.828 450.44C648.193 450.245 646.191 449.415 644.385 448.633C641.748 447.51 640.283 447.168 637.549 447.168C633.106 447.12 632.324 447.364 630.908 449.61C629.834 451.27 629.834 451.563 630.371 453.956C630.957 456.25 631.397 456.788 635.156 460.059C637.402 462.012 640.674 464.649 642.432 465.918C644.141 467.188 647.607 470.069 650.049 472.315C652.539 474.561 655.42 477.002 656.494 477.735C659.57 479.786 668.945 488.624 673.096 493.409C675.537 496.192 678.076 500.635 681.152 507.325C681.69 508.545 682.617 510.206 683.252 511.036C683.838 511.866 684.668 513.477 685.059 514.698C685.449 515.87 686.231 517.579 686.816 518.458C687.451 519.336 688.574 522.315 689.404 525.049C690.283 527.784 691.113 530.567 691.309 531.25C691.65 532.325 691.65 541.016 691.309 545.411C691.162 546.973 689.941 551.368 688.916 554.102C688.672 554.737 688.477 555.665 688.477 556.202C688.477 556.69 688.281 557.52 688.037 558.008C687.793 558.448 687.061 560.254 686.475 562.012C685.889 563.77 685.059 565.674 684.668 566.309C684.082 567.237 684.082 567.774 684.57 569.727C684.912 570.997 685.449 572.461 685.791 572.999C686.133 573.536 686.621 574.756 686.963 575.684C687.549 577.491 689.941 579.346 692.285 579.883C694.434 580.372 700.342 582.52 701.416 583.204C701.953 583.545 703.223 583.985 704.248 584.131C705.225 584.278 706.397 584.766 706.836 585.157C707.227 585.596 708.008 585.938 708.545 585.938C709.961 585.938 720.068 590.674 721.729 592.09C722.119 592.481 722.705 592.774 722.998 592.774C723.242 592.774 724.854 593.897 726.514 595.215C728.223 596.583 730.469 598.145 731.494 598.682C732.568 599.17 733.398 599.854 733.398 600.098C733.398 600.391 733.936 600.782 734.522 601.026C735.693 601.465 741.016 605.225 744.092 607.715C744.971 608.448 746.631 609.668 747.754 610.352C749.854 611.768 753.906 615.625 753.906 616.309C753.906 616.944 762.891 625.977 763.525 625.977C764.209 625.977 770.996 632.667 770.996 633.35C770.996 633.692 771.924 634.815 773.096 635.938C774.219 637.061 776.221 639.502 777.539 641.456C778.857 643.36 780.225 645.069 780.566 645.215C780.957 645.362 781.25 645.899 781.25 646.387C781.25 646.924 781.592 647.608 781.982 647.95C782.373 648.292 782.715 648.975 782.715 649.463C782.715 649.952 783.154 650.44 783.643 650.635C784.131 650.782 784.863 651.563 785.156 652.393C785.498 653.223 786.328 654.2 786.963 654.639C787.549 655.03 788.086 655.713 788.086 656.104C788.086 656.543 789.111 657.911 790.43 659.229C791.699 660.547 793.164 662.159 793.701 662.842C794.238 663.575 794.922 664.405 795.166 664.698C795.459 665.04 795.996 666.065 796.387 666.993C796.729 667.92 797.559 669.239 798.193 669.971C798.779 670.655 799.316 671.436 799.316 671.729C799.316 671.973 799.951 673.194 800.781 674.366C801.563 675.538 802.246 677.002 802.246 677.54C802.246 678.125 802.588 678.858 802.979 679.2C803.369 679.493 803.809 681.055 804.004 682.667C804.199 684.229 804.492 685.547 804.688 685.547C804.883 685.547 805.322 686.573 805.664 687.842C805.957 689.161 806.445 690.723 806.69 691.358C806.982 692.042 807.373 693.458 807.617 694.532C807.813 695.655 808.447 697.754 808.984 699.219C810.84 704.346 811.914 708.79 812.5 713.379C813.086 717.872 813.135 718.067 815.381 720.508C816.602 721.875 818.213 723.975 818.897 725.147C820.215 727.344 821.045 730.518 820.508 731.104C819.824 731.788 817.676 729.346 816.602 726.709C815.967 725.196 814.941 723.389 814.307 722.754C813.232 721.68 812.988 721.68 810.889 722.217C806.836 723.194 805.957 725.293 805.713 733.985C805.615 736.329 804.932 735.499 804.199 732.276C803.32 728.174 802.588 726.563 800.928 725C799.756 723.877 799.268 723.731 797.51 723.975C795.215 724.268 794.678 724.854 790.772 730.86C787.695 735.547 786.67 736.817 785.791 736.817C785.254 736.817 785.107 736.475 785.303 735.694C785.498 735.108 785.742 733.643 785.938 732.422C786.133 731.202 787.305 728.125 788.525 725.586C790.576 721.241 790.723 720.655 790.918 716.114C791.113 711.573 790.576 708.252 789.502 706.788C789.307 706.495 788.916 705.372 788.623 704.346C787.842 700.977 786.035 696.192 784.082 691.993C783.057 689.795 782.227 687.647 782.227 687.208C782.227 686.817 781.738 685.987 781.104 685.401C779.639 683.985 776.221 679.346 775.244 677.491C774.854 676.661 773.975 675.44 773.291 674.805C771.729 673.194 770.02 670.362 770.02 669.336C770.02 668.897 769.434 667.872 768.75 667.139C768.018 666.407 766.26 664.161 764.795 662.208C763.33 660.206 761.279 658.008 760.205 657.325C759.18 656.592 758.203 655.616 758.008 655.127C757.568 653.809 753.516 649.61 750.732 647.559C749.414 646.534 747.852 645.264 747.315 644.678C746.777 644.141 745.264 643.067 743.945 642.334C742.627 641.602 739.99 639.795 738.086 638.233C736.182 636.67 734.277 635.303 733.887 635.108C733.496 634.913 732.813 634.571 732.422 634.375C732.031 634.131 730.469 633.301 729.004 632.569C727.539 631.788 725.391 630.469 724.268 629.59C723.145 628.76 721.191 627.637 719.873 627.149C718.604 626.661 716.748 625.782 715.82 625.147C714.893 624.512 713.77 624.024 713.281 624.024C712.793 624.024 711.719 623.584 710.84 623.047C709.961 622.51 708.301 621.973 707.178 621.778C706.006 621.631 705.078 621.29 705.078 621.094C705.078 620.606 700.098 619.581 697.803 619.629C697.168 619.629 695.898 619.434 695.068 619.19C694.141 618.946 692.383 618.946 690.772 619.239C688.477 619.629 687.842 619.971 686.67 621.485C683.545 625.586 683.496 627.149 686.279 634.131C688.33 639.161 690.088 645.752 690.625 650.635C690.723 651.172 691.016 653.125 691.309 655.03C692.285 660.938 693.115 673.78 693.066 681.885C693.066 690.43 691.553 703.76 689.941 709.913C689.697 710.889 689.356 713.526 689.16 715.821C688.965 718.116 688.525 720.948 688.184 722.168C687.793 723.389 687.5 724.805 687.5 725.391C687.5 725.928 687.158 727.1 686.719 727.93C686.328 728.809 685.352 731.836 684.619 734.717C683.887 737.647 682.813 740.918 682.227 742.042C681.641 743.165 681.152 744.483 681.152 745.02C681.152 745.508 680.957 746.094 680.713 746.387C680.469 746.631 679.785 748.243 679.199 749.952C678.223 752.833 677.539 754.493 675.244 759.571C674.707 760.645 674.316 761.719 674.316 761.915C674.316 762.11 673.535 763.379 672.607 764.795C671.68 766.163 670.898 767.627 670.898 768.018C670.898 768.36 670.557 769.678 670.117 770.948C668.897 774.317 669.482 777.344 671.68 779.249C672.607 780.079 673.682 780.762 674.023 780.762C674.365 780.762 675.684 781.299 676.904 781.983C678.125 782.667 680.42 783.448 681.982 783.741C683.545 784.034 686.475 784.522 688.525 784.864C690.527 785.206 692.529 785.645 692.871 785.889C693.213 786.133 694.336 786.475 695.264 786.67C697.022 787.012 699.072 787.793 705.078 790.284C706.836 791.016 709.375 792.09 710.693 792.627C712.061 793.213 715.674 795.02 718.799 796.729C721.875 798.438 724.658 799.805 724.951 799.805C725.635 799.805 730.42 802.247 732.275 803.565C733.106 804.2 733.887 804.688 733.984 804.688C734.473 804.688 742.481 809.668 743.408 810.499C743.945 811.036 745.117 811.866 745.996 812.354C746.875 812.891 750 815.625 752.979 818.36C758.545 823.536 764.502 831.397 763.965 832.862C763.574 833.838 760.547 834.961 756.104 835.792C751.318 836.67 737.549 836.768 734.131 835.938C732.813 835.645 730.176 835.303 728.272 835.206C726.416 835.108 724.072 834.766 723.145 834.473C722.217 834.131 719.775 833.692 717.773 833.448C713.135 832.911 709.326 832.227 706.543 831.543C705.322 831.25 700.83 830.567 696.533 830.03C692.236 829.542 688.037 828.907 687.109 828.663C686.231 828.418 684.766 828.321 683.887 828.467C682.959 828.614 681.69 828.418 680.859 827.979C680.078 827.588 678.125 827.149 676.514 826.954C673.731 826.661 666.113 825.586 660.889 824.756C654.297 823.682 646.826 822.608 638.281 821.534C633.106 820.85 627.393 819.971 625.586 819.581C623.779 819.141 620.02 818.604 617.188 818.36C611.377 817.823 604.248 816.602 601.318 815.674C600.244 815.284 598.682 814.893 597.852 814.698C596.973 814.551 594.922 813.184 593.213 811.719C591.553 810.303 589.99 809.083 589.795 809.083C589.6 809.083 589.063 808.692 588.574 808.252C588.135 807.813 586.719 806.885 585.449 806.153C584.18 805.469 581.641 803.272 579.785 801.27C576.904 798.145 574.658 795.997 567.139 789.161C566.602 788.672 565.186 787.061 563.965 785.645C560.742 781.788 559.033 780.176 555.859 778.077C554.248 777.002 551.709 774.854 550.147 773.292C545.947 768.995 542.578 766.26 541.113 765.87C540.381 765.674 538.818 764.6 537.598 763.477C536.377 762.354 534.717 760.987 533.936 760.499C533.105 759.961 531.494 758.79 530.273 757.813C526.465 754.786 519.775 750.538 516.357 748.975C512.647 747.315 507.617 746.583 499.268 746.534C493.994 746.485 495.508 746.094 480.469 751.563C478.174 752.393 475.879 753.516 475.293 754.004C474.756 754.493 474.121 754.883 473.828 754.883C473.242 754.883 467.285 760.157 465.283 762.452C464.404 763.428 462.354 765.235 460.742 766.504C452.686 772.608 441.211 784.083 436.768 790.479C434.619 793.604 427.246 801.026 425.928 801.465C425.391 801.612 424.512 802.442 423.926 803.223C423.291 804.053 422.51 804.688 422.119 804.688C421.729 804.688 420.801 805.274 420.02 806.055C417.578 808.35 415.82 809.571 414.893 809.571C414.404 809.571 413.428 809.864 412.695 810.254C411.963 810.645 410.254 811.084 408.936 811.28C407.568 811.475 405.615 812.159 404.492 812.793C403.418 813.379 401.367 814.063 399.951 814.258C398.535 814.454 396.631 815.137 395.654 815.772C394.678 816.456 393.066 817.09 392.139 817.237C391.162 817.383 389.844 817.823 389.16 818.165C388.477 818.506 386.523 819.239 384.766 819.825C383.008 820.411 380.957 821.29 380.127 821.778C379.346 822.266 377.881 822.803 376.953 822.999C375.098 823.34 373.535 824.024 365.967 827.637C356.055 832.374 347.119 835.938 345.166 835.938C344.775 835.938 343.701 836.475 342.773 837.159C341.846 837.842 340.43 838.379 339.648 838.379C338.818 838.379 337.451 838.819 336.621 839.307C335.791 839.795 333.057 840.918 330.518 841.7C323.438 844.043 321.631 844.678 320.215 845.459C319.531 845.85 318.604 846.192 318.262 846.192C317.871 846.192 317.139 846.631 316.65 847.168C316.162 847.706 314.99 848.292 314.014 848.438C313.037 848.633 311.182 849.317 309.814 849.903C308.496 850.538 306.982 851.075 306.543 851.075C306.104 851.075 304.248 851.856 302.393 852.784C300.586 853.711 298.047 854.639 296.729 854.786C295.459 854.981 294.287 855.323 294.141 855.518C293.262 856.983 283.838 859.522 275.293 860.596C267.92 861.573 263.477 861.28 262.549 859.815C261.865 858.741 264.844 851.172 267.48 847.315C268.506 845.752 270.459 842.823 271.826 840.821C275.391 835.596 288.525 822.364 293.066 819.532C294.141 818.848 296.826 816.7 299.023 814.795C303.809 810.596 306.25 808.692 308.838 807.129C309.912 806.495 312.354 804.688 314.258 803.174C318.457 799.805 323.438 796.387 324.072 796.387C324.365 796.387 325.439 795.704 326.465 794.922C328.906 792.969 334.668 790.235 337.305 789.795C338.721 789.551 339.844 788.965 340.869 787.94C342.188 786.524 342.334 786.133 342.139 784.034C341.992 782.618 341.504 781.153 340.869 780.372C340.332 779.639 339.307 778.028 338.623 776.758C337.939 775.489 336.621 773.829 335.693 773.096C333.984 771.778 329.297 765.772 328.711 764.209C328.564 763.77 327.734 762.256 326.807 760.889C325.928 759.473 324.902 757.569 324.463 756.739C324.072 755.86 323.584 754.786 323.34 754.395C320.996 750.342 318.213 744.776 317.578 743.067C317.236 742.042 316.406 740.479 315.772 739.6C314.453 737.891 313.623 735.596 311.523 728.272C308.887 718.995 308.643 718.311 308.154 717.334C307.861 716.797 307.617 715.333 307.617 714.014C307.617 712.745 307.275 710.108 306.885 708.252C305.42 701.709 304.59 697.461 303.906 693.116C303.516 690.674 302.93 687.5 302.637 686.036C301.66 681.006 301.123 674.561 301.025 666.749C300.879 652.686 300.244 649.463 297.461 647.999C295.85 647.168 286.23 649.415 284.326 651.124C281.543 653.565 278.711 655.762 278.32 655.762C278.076 655.762 276.758 656.739 275.439 657.911C274.121 659.083 272.363 660.206 271.533 660.401C270.752 660.547 269.824 661.036 269.482 661.426C269.189 661.817 268.652 662.11 268.262 662.11C267.92 662.11 266.602 662.989 265.283 664.063C263.135 665.87 261.816 666.993 256.641 671.729C255.713 672.608 254.688 673.34 254.395 673.34C254.15 673.34 252.783 674.219 251.367 675.293C249.951 676.368 248.486 677.247 248.096 677.247C247.705 677.247 246.338 678.321 245.068 679.688C243.75 681.006 242.09 682.422 241.309 682.813C240.527 683.204 239.746 683.887 239.6 684.327C239.404 684.717 239.014 685.059 238.672 685.059C238.33 685.059 237.109 686.084 235.938 687.256C234.766 688.477 233.643 689.454 233.398 689.454C233.154 689.454 232.861 689.844 232.715 690.333C232.52 690.821 230.811 692.872 228.857 694.922C222.51 701.563 219.287 705.909 218.018 709.473C217.627 710.547 216.113 713.965 214.6 717.042C213.135 720.167 211.914 723.194 211.914 723.829C211.914 724.463 211.475 726.026 210.986 727.344C210.449 728.663 209.473 731.397 208.74 733.399C208.057 735.401 206.982 738.135 206.397 739.454C205.469 741.553 205.322 742.725 205.322 748.243C205.322 753.223 205.518 754.981 206.152 756.104C206.592 756.885 207.324 758.643 207.813 760.01C208.301 761.329 209.326 762.989 210.107 763.672C210.938 764.356 212.5 765.821 213.672 766.944C214.844 768.067 216.797 769.678 218.018 770.557C220.41 772.266 220.85 773.438 219.141 773.389C217.48 773.34 216.65 772.901 214.355 770.85C212.207 768.995 211.279 768.848 208.008 769.825C206.934 770.167 204.98 773.389 205.322 774.366C205.469 774.805 205.615 776.612 205.664 778.321C205.713 781.153 205.566 781.739 204.297 783.545C203.125 785.157 202.637 785.45 202.002 785.059C201.563 784.815 201.172 784.229 201.172 783.741C201.172 783.252 200.83 782.569 200.439 782.227C200.049 781.885 199.707 781.153 199.707 780.616C199.707 780.079 199.463 778.809 199.17 777.881C196.631 769.922 195.459 768.458 191.992 768.897C189.941 769.19 189.648 769.483 187.207 773.584C186.865 774.073 186.377 774.756 186.084 775.049C185.791 775.342 185.547 775.977 185.547 776.417C185.547 776.856 185.107 778.077 184.619 779.151C184.082 780.176 183.545 781.397 183.398 781.885C183.203 782.569 182.715 782.715 181.543 782.618C180.273 782.52 179.736 782.081 178.857 780.469C177.002 777.1 177.539 772.95 180.469 768.946C181.348 767.676 182.129 766.065 182.129 765.43C182.129 764.747 182.324 764.112 182.568 763.965C182.764 763.819 183.154 761.426 183.35 758.692C183.545 755.909 183.887 753.418 184.131 753.125C184.375 752.833 184.522 749.512 184.473 745.801C184.375 742.042 184.619 737.696 184.912 736.084C185.254 734.473 185.938 730.958 186.475 728.272C187.012 725.586 187.695 721.973 187.939 720.215C188.33 717.823 189.355 715.284 192.188 709.717C194.238 705.665 196.338 701.807 196.826 701.075C197.363 700.391 197.754 699.61 197.754 699.366C197.754 699.122 198.535 697.803 199.463 696.485C200.391 695.167 201.172 693.702 201.172 693.213C201.172 692.774 202.148 691.114 203.369 689.551C204.59 688.038 205.566 686.475 205.566 686.133C205.566 685.84 205.762 685.547 206.006 685.547C206.25 685.547 207.178 684.278 208.057 682.715C208.936 681.202 209.912 679.688 210.205 679.444C211.182 678.565 217.041 670.752 220.508 665.625C221.143 664.747 222.168 663.282 222.9 662.452C223.584 661.573 225.195 659.473 226.514 657.715C229.297 653.956 233.936 649.219 236.328 647.706C237.256 647.071 238.916 645.752 240.039 644.727C244.141 640.821 248.828 637.11 255.273 632.715C256.152 632.081 258.105 630.42 259.668 629.053C261.182 627.637 262.695 626.465 262.988 626.465C263.281 626.465 263.867 626.124 264.209 625.684C265.088 624.61 271.826 619.629 272.412 619.629C272.607 619.629 273.584 619.141 274.463 618.506C276.953 616.846 280.42 615.088 285.889 612.793C300.439 606.739 305.664 603.077 305.664 598.926C305.664 596.875 304.932 594.483 303.76 592.286C302.539 590.186 301.416 580.079 301.025 568.36C300.781 561.133 300.928 557.325 301.758 549.317C302.295 543.799 302.93 538.184 303.174 536.866C304.297 530.469 304.688 528.711 305.908 524.415C306.592 521.875 307.617 519.043 308.154 518.165C308.643 517.286 309.082 516.211 309.082 515.772C309.082 515.333 309.619 514.307 310.254 513.477C310.889 512.647 311.914 510.987 312.549 509.864C315.967 503.614 317.334 501.514 318.994 499.756C319.727 498.926 320.703 497.51 321.191 496.583C321.924 495.02 322.461 494.727 326.66 493.36C330.664 492.042 331.494 491.553 332.959 489.747C334.522 487.891 334.668 487.452 334.619 484.766C334.522 482.422 334.277 481.543 333.398 480.616C331.641 478.711 330.908 478.516 328.076 479.053C319.043 480.762 313.867 481.592 311.279 481.69C308.691 481.788 301.953 483.008 299.805 483.79C299.414 483.936 297.852 484.083 296.387 484.131C294.922 484.18 292.725 484.571 291.504 485.01C290.283 485.401 286.572 486.084 283.203 486.573C279.883 487.012 276.953 487.5 276.709 487.647C276.465 487.793 273.828 487.842 270.85 487.745C267.822 487.696 264.502 487.647 263.428 487.647C262.354 487.696 258.105 487.256 253.955 486.719C247.998 485.987 245.85 485.499 243.457 484.375C239.16 482.325 232.91 478.077 228.662 474.268C224.658 470.655 218.75 463.672 218.75 462.5C218.75 462.11 218.115 460.743 217.383 459.522C216.65 458.301 215.527 456.055 214.893 454.59C214.307 453.125 213.379 451.124 212.891 450.147C211.23 447.12 210.693 440.43 211.377 432.276C211.719 428.321 212.158 424.756 212.354 424.366C212.598 423.926 212.939 421.973 213.086 420.02C213.281 418.067 213.77 415.723 214.16 414.795C214.551 413.868 214.844 412.452 214.844 411.622C214.844 409.229 217.676 401.075 220.508 395.264C221.973 392.286 223.145 389.6 223.145 389.258C223.145 388.917 225.098 385.254 227.49 381.202C229.834 377.1 232.324 372.852 232.959 371.729C238.379 362.208 240.772 358.838 244.189 356.153C245.215 355.323 246.484 353.711 248.291 350.879C249.17 349.512 251.709 346.68 253.955 344.581C256.201 342.432 259.814 339.014 261.963 336.963C264.111 334.913 267.09 332.569 268.555 331.739C270.02 330.86 272.607 329.004 274.268 327.588C278.76 323.633 280.615 322.364 284.912 320.264C287.061 319.19 289.502 317.872 290.283 317.334C291.113 316.846 292.432 316.163 293.213 315.821C295.508 314.942 300.928 312.012 302.002 311.084C302.93 310.303 304.297 309.62 312.5 305.811C314.502 304.883 317.041 303.663 318.066 303.125C319.141 302.54 323.291 301.026 327.295 299.708C331.299 298.389 335.742 296.827 337.158 296.143C340.039 294.825 342.383 294.19 345.947 293.702C347.314 293.506 350.684 292.725 353.467 291.944C356.299 291.163 359.131 290.528 359.814 290.528C360.986 290.528 366.309 289.405 375.732 287.061C377.881 286.524 380.957 285.938 382.568 285.694C393.164 284.131 395.41 283.838 396.729 283.838C397.559 283.838 400.293 283.497 402.832 283.057C405.371 282.569 409.473 282.032 411.865 281.788C422.412 280.713 426.758 280.176 430.322 279.493C433.35 278.907 439.697 278.711 461.23 278.614C476.123 278.516 488.477 278.321 488.623 278.125C488.916 277.833 495.41 277.93 525.391 278.565Z" fill="black"/>
</svg>
