<svg width="2048" height="2048" viewBox="0 0 2048 2048" fill="none" xmlns="http://www.w3.org/2000/svg">
<path d="M1128.5 558H905L755.5 576.5L592 633.5L474 736L421.5 876L448.5 963L489.5 995.5L534.5 1009L662.5 989.5L648 1013.5L608 1116L621 1224L580 1243L448.5 1344L378.5 1471.5L367.5 1556L360 1601.5L418.5 1615L468 1574L441 1552.5L434.5 1522L455.5 1450.5L534.5 1377L603.5 1333.5L621 1468L691.5 1601.5L569.5 1681.5L529 1754.5L569.5 1772L870 1659.5L944.5 1574L1035.5 1537L1118 1581L1231 1681.5L1565.5 1719L1579.5 1696.5L1498 1628L1389.5 1577.5L1433.5 1451L1418.5 1286.5L1433.5 1276L1565.5 1361.5L1613.5 1456L1604 1513L1686.5 1504V1468L1661.5 1384.5L1573.5 1262.5L1417.5 1160.5L1433.5 1086L1399.5 1002.5L1316 926C1353.13 943.434 1405.5 959 1419 963.5C1432.5 968 1497.63 978.761 1548.5 955C1592.5 931.617 1606.17 911.975 1611.5 865L1573.5 770L1501 680L1368 601L1128.5 558Z" fill="currentColor"/>
<path d="M1038 542.598C1037.2 542.798 1024.1 543.098 1009 543.298C993.9 543.498 974.3 544.198 965.5 544.798C956.7 545.498 936 546.398 919.5 546.998C898.9 547.698 887.6 548.498 883.5 549.498C880.2 550.298 872.8 551.198 867 551.498C861.2 551.798 854 552.298 851 552.698C848 553.098 842.6 553.498 839 553.598C832.7 553.798 826.7 554.198 811 555.598C806.9 555.898 801 556.798 798 557.598C795 558.398 790.7 558.998 788.3 558.998C784 558.998 774.6 561.098 771.3 562.798C770.3 563.298 766.6 563.998 763.1 564.398C756.3 564.998 737.2 569.198 730.5 571.498C728.3 572.298 724.7 573.198 722.5 573.598C720.3 573.998 716.6 575.098 714.2 576.098C711.9 577.098 706.9 578.498 703.2 579.098C699.5 579.698 695.1 581.098 693.4 582.098C691.7 583.198 689.5 583.998 688.6 583.998C687.7 583.998 684.1 585.298 680.7 586.898C677.2 588.398 671.9 590.298 668.9 590.998C665.9 591.698 662.5 592.898 661.2 593.698C659.9 594.498 654.7 596.498 649.7 598.098C644.6 599.798 639.6 601.698 638.4 602.498C637.3 603.198 630.5 606.198 623.4 608.998C601.3 617.998 587.9 625.298 563.2 641.898C543.1 655.298 543.6 654.998 542.2 654.998C541.4 654.998 537.6 657.898 533.7 661.498C529.8 665.098 526.1 667.998 525.5 667.998C524.1 667.998 523.6 668.498 505.5 687.498C497.3 696.198 482.2 711.898 482.2 711.898C482.2 711.898 467.2 728.298 456.2 749.498C455.3 751.098 453.2 754.498 451.4 756.998C449.6 759.498 446.8 764.498 445.1 768.298C443.4 771.998 440.8 776.898 439.3 779.298C434.4 786.898 430.7 795.098 425.1 810.498C423.9 813.798 422.3 817.798 421.5 819.498C419.1 824.698 416.6 834.598 415 844.498C414.4 848.298 413.2 853.498 412.4 855.998C411.6 858.498 411 863.298 411 866.698C411 870.098 410.4 876.098 409.7 880.198C408.2 888.498 408.4 908.598 410.1 916.998C412.1 927.198 416.3 940.498 418.1 942.898C419.2 944.198 420 946.198 420 947.398C420 948.598 420.7 950.498 421.5 951.698C422.3 952.798 424.5 956.798 426.4 960.398C428.3 964.098 430.9 968.398 432.2 969.998C433.5 971.598 436.8 975.898 439.5 979.498C446.9 989.298 458.3 998.598 475.1 1008.8C479.9 1011.7 484.7 1014 485.8 1014C487 1014 489.4 1014.9 491.2 1015.9C493 1017 496.8 1018.2 499.5 1018.6C502.3 1018.9 505.2 1019.6 506 1020C507.5 1020.8 521 1022.6 534 1023.7C537.6 1024 544.2 1024.2 548.7 1024.1C553.2 1024 558.7 1024.8 558.7 1024.8L590 1023.1C590 1023.1 609.7 1019.5 619.6 1018.1C623.6 1017.5 627.5 1016.7 628.4 1016.4C631.2 1015.3 630.2 1018.5 625.5 1025.1C620.2 1032.7 609.5 1053.8 608 1059.7C607.4 1062 606.3 1065.1 605.5 1066.7C604.7 1068.2 604 1070.3 604 1071.3C604 1072.3 602.9 1076.4 601.6 1080.3C600.2 1084.3 599.1 1089.1 599.1 1091C599.1 1092.9 598.6 1097.2 597.9 1100.5C596.5 1108.1 596.2 1111.1 594.9 1130C592.8 1161.4 593.8 1192.3 597.6 1208.8C598.9 1214.7 600 1220.2 600 1221C600 1222.9 581.7 1231.1 581.7 1231.1C581.7 1231.1 575 1234.1 573 1235.3C571 1236.5 568.263 1237.29 566.2 1238.3C564.136 1239.3 562.5 1240 561 1240.5C559.5 1241 552.5 1245.2 552 1245.6C551.5 1246 545 1250 542.4 1251.7C539.8 1253.4 529 1261.5 525.4 1264.3C524 1265.5 521 1267.5 518.5 1269.5C516.3 1271.5 512.9 1274.2 511 1275.5C509 1277 506 1279.5 504 1281.1C502.1 1283 497.8 1286.3 494.5 1288.5C491.2 1290.7 486.2 1294.7 483.5 1297.4C480.7 1300 475.6 1304.8 472 1307.9C462.5 1316.2 445 1334.7 445 1334.7C445 1334.7 442.3 1338.8 439 1342.6C435.7 1346.4 435.392 1347.57 433 1350.7C432.611 1351.21 432.389 1351.49 432 1352C430.814 1353.55 429 1356 429 1356C429 1356 426.483 1359.41 425 1361.5C422.99 1364.34 422.3 1365.2 419.9 1368.5C417.4 1371.8 412.7 1378.1 409.5 1382.4C402.8 1391.3 403.5 1390 392.8 1411C388.4 1419.5 384.4 1426.9 384 1427.5C381.1 1431.1 367.8 1460.1 365.5 1467.5C364.1 1472.4 362.4 1477.6 361.8 1479C361.2 1480.4 360.4 1486.4 360.4 1486.4L358.5 1493.7C358.5 1493.7 357 1498 357.1 1501.3L356.1 1508.8C356.1 1508.8 355.727 1511.86 355.5 1514C355.293 1515.94 355 1518.3 354.9 1519.2C354.9 1520.2 354.9 1526.1 354.9 1532.2C355 1538.4 354.6 1546.1 354.1 1549.3C353.5 1552.5 353.6 1556.5 353.6 1556.5L352.1 1560.9L350 1564.5C350 1564.5 348.2 1568.8 346.1 1573.3C342.9 1579.9 342.1 1582.7 342 1587.5C341.9 1596.6 346.1 1606 346.1 1606C346.1 1606 347.6 1608.8 348.4 1610.5C350 1614.1 358.5 1622 359 1622.5C359.5 1623 361 1623.9 361 1623.9C361 1623.9 371.6 1627.2 377.6 1626.1C380.8 1625.5 383.5 1625 383.7 1625C383.8 1625 385.6 1623.4 387.6 1621.5C389.5 1619.6 391.5 1618 391.9 1618C392.8 1618 396.5 1621.4 397.7 1623.2C400.4 1627.6 411.8 1633.3 415.7 1632.4C421.5 1631.1 430.5 1625.9 432.6 1622.7C433.7 1620.9 436 1617.5 437.7 1615C439.4 1612.5 441 1609.6 441.2 1608.5C441.5 1606.9 442.2 1606.6 445 1606.8C446.9 1607 449.3 1607.6 450.3 1608.1C454.4 1610.4 466.3 1603.7 471 1596.4C473.1 1593.3 473.1 1585.1 470.9 1575.6C469.8 1570.4 469.1 1569.4 462.6 1563.7C458.7 1560.4 453 1555.1 450 1552.2C444.7 1546.9 444.5 1546.5 443.4 1539.1C441.7 1527.7 443.1 1520.2 449.8 1503.8C452 1498.5 454.1 1492.6 454.5 1490.8C454.9 1489 455.8 1486.5 456.6 1485.3C457.4 1484.1 458 1482.6 458 1482C458 1481.5 459.1 1478.7 460.4 1476C461.8 1473.2 463.2 1469.5 463.5 1467.8C464.3 1464.4 467.7 1458 469.7 1456.5C470.4 1455.9 472.1 1454 473.5 1452.1C476.2 1448.3 491.7 1431.2 496.5 1426.7C498.2 1425.1 502.4 1421.8 506 1419.2C509.6 1416.7 515.7 1412.1 519.5 1408.9C523.4 1405.8 527 1403.1 527.7 1402.9C529.4 1402.3 548.1 1387.1 554.3 1381.2L559 1378C560.5 1377.2 564.2 1375.2 567.2 1373.7C570.1 1372.1 574.1 1369.4 576 1367.6C582 1361.9 590.9 1355.8 592.3 1356.3C593.3 1356.7 593.7 1360 593.8 1369.2C594.2 1390.4 597.8 1419.3 602.6 1440C605.3 1451.6 606.1 1455.3 608 1467C610 1479.3 614.3 1495.9 616.5 1500C617.2 1501.4 619 1506.4 620.5 1511.2C622 1516.1 623.6 1520.2 624.1 1520.6C624.6 1520.9 625 1522 625 1523C625 1524 626.1 1526.2 627.5 1527.8C628.9 1529.5 630 1531.2 630 1531.8C630 1533.5 634.8 1543.8 635.9 1544.5C636.5 1544.8 637 1545.8 637 1546.7C637 1547.5 637.9 1549.4 638.9 1550.9C639.9 1552.3 643.4 1558.6 646.6 1564.8C649.9 1571.1 653 1576.9 653.5 1577.8C657.9 1585 661 1589.3 665.2 1594.2L670.1 1599.9L667.1 1601.4C665.5 1602.3 663.2 1603 662.1 1603C661 1603 658.9 1604.1 657.4 1605.5C655.9 1606.9 654.1 1608 653.3 1608C652.6 1608 651.7 1608.7 651.4 1609.5C651 1610.4 647.8 1612.8 644.1 1615C640.5 1617.2 633.5 1622.2 628.5 1626.1C623.6 1630 618.3 1633.7 616.8 1634.4C615.4 1635 610.9 1638.5 606.8 1642.2C598.6 1649.6 585.4 1660.4 580.7 1663.6C578.9 1664.8 573.8 1669.4 569.2 1673.9C564.7 1678.4 560.6 1682 560.2 1682C559 1682 552.8 1688.8 548.3 1695C546 1698 541.9 1703 539 1706C536.1 1709 532.9 1713.3 531.9 1715.5C530.9 1717.7 529 1721 527.6 1722.9C526.1 1724.8 525 1726.8 525 1727.2C525 1727.7 523.9 1729.8 522.5 1731.9C521.2 1734.1 519.8 1737.1 519.5 1738.7C518.8 1741.8 517.6 1745 515.4 1749.3C513.7 1752.7 513.6 1760.9 515.1 1768.2C515.9 1772 517.2 1774.6 519.9 1777.3C524.3 1782 526.8 1783.3 534.3 1784.8C537.4 1785.5 542.4 1786.5 545.4 1787.1C549.4 1788 552.7 1788 558.2 1787.1C562.2 1786.5 570.1 1785.3 575.8 1784.5C581.6 1783.6 592.7 1780.7 601.2 1777.9C609.4 1775.2 616.9 1773 617.7 1773C618.6 1773 620.7 1772.1 622.5 1771C624.3 1769.9 628.6 1768.1 632 1767C635.5 1765.9 638.8 1764.6 639.4 1764.1C640 1763.6 642.8 1762.6 645.5 1761.9C650.1 1760.8 664.9 1754.5 677.7 1748.3C680.5 1747 685.9 1745 689.7 1744C693.4 1743 698.3 1741.5 700.5 1740.6C702.7 1739.8 705.5 1739.1 706.6 1739C707.8 1739 709.9 1738.1 711.3 1737C712.7 1735.9 714.4 1735 715.1 1735C715.7 1735 718.6 1733.9 721.5 1732.5C724.4 1731.2 729.8 1729.1 733.6 1727.9C737.4 1726.6 742.1 1724.6 744 1723.3C745.9 1722 747.9 1721 748.5 1721C750.3 1721 764.4 1714.8 766.2 1713.3C767.1 1712.5 770.9 1711 774.7 1710C782.2 1708 788.6 1705.5 789.4 1704.1C790 1703.2 796.4 1700.8 808.5 1697C812.4 1695.7 817.5 1693.7 820.1 1692.5C822.6 1691.2 826.3 1689.8 828.4 1689.5C830.4 1689.1 834.4 1687.7 837.1 1686.3C839.9 1685 846.9 1682.8 852.7 1681.4C858.5 1680.1 864.5 1678 866.1 1677C867.6 1675.9 869.4 1675 870.2 1675C872.7 1675 877.9 1671.1 880.9 1667C882.6 1664.7 885.8 1661.5 888.2 1660C893.6 1656.3 922.8 1625.9 925.3 1621.4C926.9 1618.4 934.1 1610 935 1610C935.5 1610 939.7 1606.3 944.3 1601.8C952.8 1593.3 956.4 1590.2 966.7 1581.7C985.1 1566.6 991.2 1565.1 991.2 1565.1C991.2 1565.1 995.025 1563.18 997.5 1562C1002.79 1559.48 1006.1 1557.4 1011.2 1555.9C1020.7 1552.9 1026.7 1552.2 1034.5 1553.1C1044.8 1554.2 1046.5 1554.7 1051.8 1558.4C1054.2 1560.1 1056.9 1561.9 1057.8 1562.5C1063.2 1565.9 1076.8 1575.3 1084.5 1581C1089.5 1584.6 1094.4 1588.3 1095.6 1589.1C1096.8 1589.9 1101 1593.4 1105 1597C1109 1600.6 1114.5 1605.5 1117.3 1608C1120.2 1610.5 1125.6 1615.9 1129.5 1620C1133.3 1624.1 1139.9 1630.8 1144 1635C1148.1 1639.1 1152.9 1644.1 1154.6 1646C1156.3 1647.9 1159.4 1651.2 1161.6 1653.2C1163.7 1655.2 1166.4 1657.9 1167.6 1659.2C1175 1667.4 1198.5 1687.5 1205.4 1691.6C1208.6 1693.5 1213.5 1695.5 1216.2 1696C1218.9 1696.6 1221.7 1697.3 1222.3 1697.7C1222.9 1698.1 1225.5 1698.5 1228 1698.6C1230.5 1698.7 1235.7 1699.3 1239.5 1699.9C1249.6 1701.7 1257.7 1702.7 1273.5 1704.4C1281.2 1705.2 1289 1706.2 1290.8 1706.5C1293.8 1707.1 1312.3 1709.5 1322 1710.6C1327.2 1711.2 1340.9 1712.9 1350.3 1714.1C1354.8 1714.7 1361.9 1715.6 1366 1716.1C1370.1 1716.6 1375.5 1717.4 1378 1718C1382.4 1719 1396.5 1720.4 1415 1721.9C1420.2 1722.3 1425.5 1723.1 1426.7 1723.8C1427.9 1724.5 1430.2 1725 1431.7 1725C1433.3 1725 1437 1725.6 1440.1 1726.4C1443.1 1727.2 1453 1728.8 1462 1729.9C1471.1 1731.1 1480.8 1732.6 1483.5 1733.4C1486.3 1734.1 1490.3 1734.8 1492.5 1734.9C1494.7 1734.9 1501.8 1735.5 1508.2 1736.2C1522.4 1737.6 1555.4 1735.9 1560.5 1733.5C1562.2 1732.7 1566.9 1730.6 1571 1728.9C1579.7 1725.3 1581 1724.3 1585 1718.2C1588.3 1713.2 1588.7 1709.4 1586.9 1699.4C1586.2 1695.5 1584.6 1691.7 1582.1 1688C1580.1 1685 1577.8 1681 1577.1 1679.2C1576.4 1677.5 1575.4 1676 1575 1676C1574.7 1676 1570.3 1671.5 1565.4 1665.9C1560.5 1660.3 1554.5 1654.4 1552 1652.7C1549.5 1651 1543.2 1646.1 1537.9 1641.8C1532.6 1637.5 1527.7 1634 1527 1634C1526.3 1634 1520.6 1630.8 1514.3 1627C1508 1623.1 1502.5 1620 1502.2 1620C1500.9 1620 1472.2 1605.2 1465.9 1601.2C1463.9 1600 1461.3 1599 1460 1599C1458.8 1599 1456.1 1598.1 1454.1 1597.1C1447.9 1593.7 1434.7 1587.8 1429.1 1585.9C1426.1 1584.8 1422.6 1583.3 1421.3 1582.5C1420.1 1581.7 1418.2 1581 1417.2 1581C1416.1 1581 1414.7 1580.3 1414 1579.5C1413.2 1578.6 1411 1578 1408.3 1578H1403.8L1404.5 1574.7C1404.9 1573 1406 1569.8 1407.1 1567.7C1408.1 1565.6 1409 1563.3 1409 1562.5C1409 1561.7 1409.7 1559.6 1410.4 1557.8C1411.2 1556 1413.5 1550.2 1415.4 1544.9C1417.3 1539.7 1419.8 1533.6 1420.9 1531.4C1422 1529.3 1423.4 1523.9 1424.1 1519.5C1424.8 1515.1 1425.9 1510.4 1426.7 1509C1427.4 1507.6 1428 1504.9 1428 1503C1428 1501.1 1429.4 1495.7 1431 1491C1433.5 1484.3 1434.3 1479.8 1435.1 1469.5C1435.6 1462.3 1436.4 1454.7 1436.9 1452.5C1439.8 1440.3 1442.9 1415.8 1443.4 1402.4C1443.6 1397 1443.1 1386.9 1442.3 1380C1441.6 1373.1 1440.7 1360.8 1440.4 1352.5C1440.1 1344.3 1439.6 1337.1 1439.3 1336.7C1439 1336.2 1438.4 1332.8 1437.9 1329.1C1437 1322.3 1435 1312.6 1433 1305.5C1430.5 1296.7 1430 1297.5 1438.3 1297.5C1445.3 1297.5 1451.2 1301.2 1451.2 1301.2L1457.8 1305C1457.8 1305 1462 1307 1465.7 1309.5L1477.3 1315.5C1477.3 1315.5 1487.8 1319.9 1494 1325C1496.5 1327.1 1500.9 1330.2 1503.8 1332C1506.7 1333.7 1509 1336.5 1509 1336.5L1513.3 1339.9L1534.2 1361.1L1540.4 1367L1545 1371.7L1548.8 1377.3L1554.5 1385.5L1560 1393C1560 1393 1564.2 1397.9 1565 1399.5C1567.7 1404.7 1578.4 1419.3 1578.4 1419.3L1581 1424.2L1584 1432C1585.4 1435 1587.5 1441 1587.5 1441L1589.5 1444.5L1591 1448.4L1592.4 1450.9C1592.4 1450.9 1595.9 1459.1 1596.6 1466.7C1597 1471 1596.7 1472.7 1594.6 1476.5C1593.1 1479 1592 1482.9 1592 1482.9L1590 1487.3L1588 1493.8L1586.9 1500.7C1586.9 1500.7 1584.2 1517.3 1585.1 1523.1C1585.7 1527 1586.7 1529.2 1588.8 1531.2C1592.7 1534.7 1598.9 1538 1601.8 1538C1605.7 1538 1621 1529.9 1623.9 1526.3C1626.3 1523.3 1628.5 1522.2 1630 1523.8C1631.5 1525.4 1632.1 1527 1634.8 1529.8C1639.3 1534.9 1639.7 1535.1 1645 1535.2C1652.9 1535.4 1658.8 1532.5 1662.8 1526.5C1664.5 1523.9 1666.2 1520.9 1666.2 1520.9C1666.2 1520.9 1669.2 1521 1672.5 1522.2C1682.9 1526.2 1688 1524.9 1697.4 1515.4C1704 1508.8 1705.4 1505.6 1704.4 1499.7C1703.3 1493.7 1697.7 1477.5 1695.5 1474C1694.3 1472.1 1692.6 1468 1692.6 1468C1692.6 1468 1690.7 1464.5 1689.3 1463.4C1687.2 1461.6 1686.5 1459.6 1685.4 1452.9C1683.2 1439.1 1679.7 1428.4 1679.7 1428.4C1679.7 1428.4 1677.5 1422.8 1676.6 1419.5C1675.7 1416.2 1674.3 1411.4 1673.5 1408.9C1672.7 1406.3 1672 1402.2 1672 1402.2L1671.1 1399.6C1671.1 1399.6 1669.9 1397.2 1669.5 1395.1C1669.1 1392.9 1668 1389.4 1666.9 1387.3C1665.9 1385.3 1665 1382.5 1665 1382.5L1663.1 1379.1L1659.9 1374.8C1659.9 1374.8 1656.5 1367.9 1653.9 1363.5C1651.4 1359.1 1649 1354.2 1648.6 1352.6C1647.9 1349.7 1642.3 1341.9 1634.6 1333C1632.5 1330.5 1630 1326.9 1629.1 1325C1628.2 1323.1 1626 1319.5 1624.2 1317.1C1622.5 1314.7 1621 1311.1 1621 1310.8C1621 1310.5 1620.7 1310 1620.1 1309C1619.5 1308 1616 1304.9 1610.4 1296.5C1603.1 1285.6 1582.4 1263.3 1575.3 1258.8C1572.9 1257.3 1569.1 1253 1569.1 1253L1547.5 1231.1L1538.2 1224.3C1538.2 1224.3 1524.6 1212.8 1520.3 1210.6C1516.6 1208.8 1504.2 1199.7 1502 1197.2C1499.7 1194.7 1490 1189.2 1490 1189.2L1477.9 1182.3L1472.4 1180L1468.4 1178.5L1464.4 1177L1460.5 1175L1457.1 1173L1453.6 1171.5L1449.8 1170L1445.6 1168.5L1439.6 1166.5C1439.6 1166.5 1436.19 1165.57 1434 1165C1432.48 1164.6 1430.1 1164 1430.1 1164C1430.1 1164 1428.2 1163.5 1428.7 1160.2C1429 1158.2 1430.3 1153.8 1431.6 1150.5C1432.8 1147.2 1434.4 1142.5 1435 1140C1435.7 1137.5 1436.6 1135 1437 1134.5C1437.9 1133.4 1438.4 1129.7 1440.2 1112.7C1441.9 1095.6 1439.7 1081.5 1431.9 1062C1430.3 1057.9 1429 1054 1429 1053.4C1429 1052.9 1427.7 1050.6 1426.1 1048.4C1424.6 1046.3 1422.5 1042.2 1421.5 1039.5C1420.5 1036.7 1418.9 1033.6 1418 1032.5C1417 1031.4 1413.3 1024.4 1409.6 1016.9C1406 1009.5 1402.1 1002.5 1400.9 1001.4C1399.7 1000.4 1397 996.998 1394.9 993.898C1392.8 990.698 1389.7 987.098 1388 985.898C1381.9 981.198 1371.6 971.098 1372.2 970.398C1372.6 970.098 1378.7 972.698 1385.7 976.198C1398 982.398 1399 982.798 1409.5 983.898C1415.6 984.498 1421.9 985.298 1423.5 985.498C1425.2 985.698 1429.2 985.898 1432.5 985.998C1435.8 986.098 1441.2 986.798 1444.5 987.598C1447.8 988.298 1452.8 988.898 1455.5 988.798C1458.3 988.798 1465 989.098 1470.5 989.498C1486.5 990.798 1497.6 990.298 1505.5 987.898C1509.4 986.698 1515.4 985.598 1519 985.598C1522.6 985.498 1528.2 984.798 1531.5 984.098C1534.8 983.398 1540.9 982.198 1545 981.298C1557.3 978.698 1562.9 976.298 1568.9 971.298C1576.5 964.798 1583.6 957.398 1587.3 951.998C1589 949.498 1591.8 946.098 1593.5 944.398C1600 937.798 1614.7 914.298 1615.5 909.198C1615.9 907.098 1617 902.698 1618.1 899.298C1620.4 891.898 1620.5 884.098 1618.5 875.098C1617.7 871.498 1616.4 864.998 1615.6 860.698C1614.8 856.398 1613.4 851.498 1612.5 849.698C1611.6 847.898 1609.8 841.398 1608.4 835.198C1607.1 828.998 1605.6 823.198 1605 822.198C1604.5 821.298 1602.4 815.598 1600.4 809.598C1595.3 794.398 1591.1 785.998 1580.5 769.498C1578.7 766.698 1575.8 761.798 1573.9 758.498C1572.1 755.198 1570.2 751.998 1569.8 751.498C1567 748.098 1563 741.198 1563 739.798C1563 738.898 1561.3 736.298 1559.1 733.998C1557 731.698 1554.7 728.698 1553.9 727.198C1552.2 723.898 1534.2 704.198 1520.4 690.498C1506 676.298 1484.1 657.598 1473.3 650.298C1468.2 646.898 1461.9 642.398 1459.3 640.198C1456.6 637.998 1452.5 635.198 1450.1 633.998C1447.7 632.798 1443.6 630.398 1441.1 628.598C1436 625.098 1418.5 616.398 1414.3 615.398C1412.8 614.998 1410.5 614.098 1409.1 613.398C1407.7 612.598 1406 611.998 1405.4 611.998C1404.8 611.998 1402.3 610.598 1399.8 608.998C1397.3 607.298 1393.3 605.598 1390.9 605.198C1388.5 604.698 1382.1 601.998 1376.6 599.198C1371.2 596.298 1365.8 593.998 1364.5 593.998C1363.2 593.998 1360 592.498 1357.4 590.698C1354.5 588.698 1349 586.398 1344 585.098C1339.3 583.798 1333.1 581.698 1330.1 580.298C1327.2 578.998 1322.5 577.498 1319.7 576.898C1316.9 576.398 1311.2 574.698 1307.1 573.098C1298.9 569.998 1291.3 567.998 1287.8 567.998C1285.5 567.998 1270.9 563.598 1267.8 561.898C1266.8 561.398 1264.4 560.998 1262.5 560.998C1260.5 560.998 1257.3 560.298 1255.3 559.498C1253.4 558.698 1250 557.998 1247.9 557.998C1245.8 557.998 1242.9 557.498 1241.3 556.898C1239.8 556.298 1235.4 555.698 1231.5 555.498C1227.7 555.298 1222.5 554.398 1220.1 553.598C1217.7 552.698 1212.7 551.798 1208.9 551.498C1205.1 551.298 1199.2 550.598 1195.8 549.898C1192.3 549.298 1184.1 548.698 1177.5 548.498C1153 547.898 1129.5 546.698 1128 545.998C1127.2 545.598 1122.7 545.198 1118 545.098C1113.3 545.098 1106.4 544.698 1102.5 544.298C1098.7 543.798 1089.2 543.598 1081.5 543.698C1059.5 544.098 1043.3 543.698 1041 542.798C1040.2 542.498 1038.8 542.398 1038 542.598ZM1076 570.498C1088.9 570.798 1111.2 571.898 1125.4 572.998C1139.7 574.198 1153.4 574.998 1155.9 574.898C1165.8 574.498 1194.8 576.298 1200.7 577.698C1204.1 578.498 1207.8 578.898 1208.9 578.498C1210 578.198 1212.4 578.698 1214.2 579.598C1216 580.498 1218.8 581.198 1220.5 581.198C1222.1 581.098 1225.6 581.798 1228.3 582.598C1230.9 583.498 1233.6 583.998 1234.3 583.698C1234.9 583.498 1236.6 583.798 1238 584.498C1239.4 585.198 1242.8 585.798 1245.5 585.798C1248.3 585.698 1252.5 586.498 1255 587.498C1257.5 588.498 1260.9 589.298 1262.5 589.198C1264.2 589.198 1270.9 590.898 1277.5 592.998C1284.1 595.098 1292.2 597.298 1295.5 597.998C1298.8 598.598 1304.2 600.198 1307.5 601.498C1310.8 602.798 1315.3 604.098 1317.4 604.398C1319.6 604.698 1323.6 605.998 1326.4 607.298C1334 610.998 1336.9 612.098 1343.8 614.098C1347.3 615.098 1350.7 616.298 1351.3 616.798C1353.3 618.398 1379.4 629.798 1382.5 630.498C1384.2 630.898 1388.2 632.698 1391.6 634.498C1394.9 636.298 1401.1 638.898 1405.2 640.298C1413.7 643.198 1418.8 645.598 1425.2 649.898C1427.6 651.398 1432 653.898 1435 655.398C1442.5 658.898 1462 673.198 1473.8 683.698C1484.2 692.898 1488.7 696.698 1492.5 699.498C1494.7 701.098 1499.7 705.798 1503.6 709.898C1512.5 719.098 1512.2 718.698 1520 726.298C1528.7 734.598 1533.2 740.498 1542.3 755.098C1544.9 759.298 1547 763.098 1547 763.498C1547 764.198 1557.6 780.698 1560.8 784.998C1561.9 786.398 1564.6 791.298 1567 795.998C1569.3 800.698 1571.6 805.198 1572.1 805.998C1574.4 809.998 1576.4 815.398 1579.1 824.998C1583.8 841.998 1584.2 843.398 1585.1 845.998C1586 848.398 1589.4 862.798 1592.5 877.298C1593.8 883.198 1593.8 884.698 1592.5 889.698C1591.7 892.898 1591 896.098 1591 896.798C1591 898.098 1586.4 905.898 1582 912.398C1581.2 913.598 1579.6 916.098 1578.5 917.898C1575.7 922.598 1561.6 939.598 1556.3 944.798C1551.3 949.698 1543 952.798 1528.3 955.398C1523.5 956.298 1515.9 957.698 1511.5 958.498C1495 961.598 1488.8 961.998 1476 960.998C1469.1 960.398 1458.8 959.698 1453 959.598C1434.8 958.998 1424.9 958.098 1419.7 956.498C1416.9 955.698 1412.4 954.998 1409.6 954.998C1404.5 954.998 1401 953.698 1387 946.498C1381.8 943.898 1365.8 937.998 1363.8 937.998C1362.6 937.998 1358.8 936.398 1355.3 934.498C1351.8 932.598 1348.5 930.998 1348 930.998C1347.4 930.998 1343.4 929.198 1339.1 927.098C1334.7 924.898 1330.1 922.898 1328.8 922.498C1327.5 922.098 1323.4 920.398 1319.7 918.798C1314.3 916.498 1311.3 915.798 1305.7 915.798C1296.6 915.698 1295 916.198 1292.1 920.798C1289.9 924.198 1289.9 924.798 1291 929.698C1292.2 934.398 1293.1 935.498 1300.8 942.198C1305.4 946.198 1312.1 951.598 1315.7 954.198C1319.2 956.798 1326.3 962.698 1331.3 967.298C1336.4 971.898 1342.3 976.898 1344.5 978.398C1350.8 982.598 1370 1000.7 1378.5 1010.5C1383.5 1016.2 1388.7 1025.3 1395 1039C1396.1 1041.5 1398 1044.9 1399.3 1046.6C1400.5 1048.3 1402.2 1051.6 1403 1054.1C1403.8 1056.5 1405.4 1060 1406.6 1061.8C1407.9 1063.6 1410.2 1069.7 1411.9 1075.3C1413.7 1080.9 1415.4 1086.6 1415.8 1088C1416.5 1090.2 1416.5 1108 1415.8 1117C1415.5 1120.2 1413 1129.2 1410.9 1134.8C1410.4 1136.1 1410 1138 1410 1139.1C1410 1140.1 1409.6 1141.8 1409.1 1142.8C1408.6 1143.7 1407.1 1147.4 1405.9 1151C1404.7 1154.6 1402.2 1159.8 1402.2 1159.8L1402 1166.8C1402 1166.8 1403.8 1172.4 1404.5 1173.5C1405.2 1174.6 1406.9 1179 1406.9 1179C1406.9 1179 1413.14 1184.82 1417.8 1187.6C1424.48 1191.57 1436.5 1194.4 1436.5 1194.4L1442.3 1196.3L1447.6 1198.4L1451.1 1200L1478.1 1212.6L1480.7 1214C1480.7 1214 1484.5 1216.3 1487.9 1219C1491.4 1221.8 1496 1225 1498.1 1226.1C1500.3 1227.1 1502 1229 1502 1229L1504.3 1230.9C1504.3 1230.9 1517.6 1239.5 1523.9 1244.6C1525.7 1246.1 1531.4 1250 1531.4 1250L1544 1262.2L1563.7 1282C1563.7 1282 1579 1295.7 1579 1297.1L1583.3 1302.4C1583.3 1302.4 1589.7 1309.7 1592.4 1313.7C1595.1 1317.6 1598.6 1321.4 1598.6 1321.4L1600 1323.8L1601.5 1327L1603 1330.1L1604.9 1332.5L1608 1336.1C1608 1336.1 1610.4 1339.8 1611.7 1340.7C1612.9 1341.5 1614 1342.9 1614 1343.7C1614 1344.6 1616.1 1347.4 1618.8 1350.1C1621.4 1352.8 1624.4 1356.1 1625.5 1357.5C1626.6 1359 1628 1360.7 1628.5 1361.3C1629.1 1362 1630.2 1364.1 1631 1366C1631.7 1367.9 1633.4 1370.6 1634.7 1372.1C1635.9 1373.5 1637 1375.1 1637 1375.7C1637 1376.2 1638.3 1378.7 1640 1381.1C1641.6 1383.5 1643 1387.6 1643 1387.6L1644.5 1391L1646.6 1398.1L1648 1404L1650 1408.7C1650 1408.7 1651.6 1414.6 1652.1 1415.9C1652.7 1417.3 1653.5 1420.2 1654 1422.4C1654.4 1424.7 1655.7 1429 1656.8 1432C1660.6 1442.5 1662.8 1451.6 1664 1461C1665.2 1470.2 1665.3 1470.6 1669.9 1475.6C1672.4 1478.4 1675.7 1482.7 1677.1 1485.1C1679.8 1489.6 1681.5 1496.1 1680.4 1497.3C1679 1498.7 1674.6 1493.7 1672.4 1488.3C1671.1 1485.2 1669 1481.5 1667.7 1480.2C1665.5 1478 1665 1478 1660.7 1479.1C1652.4 1481.1 1650.6 1485.4 1650.1 1503.2C1649.9 1508 1648.5 1506.3 1647 1499.7C1645.2 1491.3 1643.7 1488 1640.3 1484.8C1637.9 1482.5 1636.9 1482.2 1633.3 1482.7C1628.6 1483.3 1627.5 1484.5 1619.5 1496.8C1613.2 1506.4 1611.1 1509 1609.3 1509C1608.2 1509 1607.9 1508.3 1608.3 1506.7C1608.7 1505.5 1609 1502.5 1609.6 1500C1610.2 1497.5 1612.4 1491.2 1614.9 1486C1619.1 1477.1 1619.4 1475.9 1619.8 1466.6C1620.2 1457.3 1617.56 1449 1616.9 1447.5C1616.23 1446 1615.7 1444.6 1615.1 1442.5C1613.5 1435.6 1609.8 1425.8 1605.8 1417.2L1602 1407.4L1599.7 1403.7L1587.7 1387.5L1583.7 1382L1577 1370.8L1574.4 1366.3C1574.4 1366.3 1569.3 1360.2 1566.3 1356.2C1563.3 1352.1 1556.9 1346.2 1556.9 1346.2L1552.4 1341.7C1552.4 1341.7 1543.2 1330.4 1537.5 1326.2C1534.8 1324.1 1530.5 1320.3 1530.5 1320.3L1523.6 1315.5C1523.6 1315.5 1515.5 1310.3 1511.6 1307.1C1507.7 1303.9 1503.8 1301.1 1503 1300.7C1502.2 1300.3 1500.8 1299.6 1500 1299.2C1499.2 1298.7 1496 1297 1493 1295.5C1490 1293.9 1485.6 1291.2 1483.3 1289.4C1481 1287.7 1477 1285.4 1474.3 1284.4C1471.7 1283.4 1467.9 1281.6 1466 1280.3C1464.1 1279 1461.8 1278 1460.8 1278C1459.8 1278 1457.6 1277.1 1455.8 1276C1454 1274.9 1450.6 1273.8 1448.3 1273.4C1445.9 1273.1 1444 1272.4 1444 1272C1444 1271 1433.8 1268.9 1429.1 1269C1427.8 1269 1425.2 1268.6 1423.5 1268.1C1421.6 1267.6 1418 1267.6 1414.7 1268.2C1410 1269 1408.7 1269.7 1406.3 1272.8C1399.9 1281.2 1399.8 1284.4 1405.5 1298.7C1409.7 1309 1413.3 1322.5 1414.4 1332.5C1414.6 1333.6 1415.2 1337.6 1415.8 1341.5C1417.8 1353.6 1419.5 1379.9 1419.4 1396.5C1419.4 1414 1416.3 1441.3 1413 1453.9C1412.5 1455.9 1411.8 1461.3 1411.4 1466C1411 1470.7 1410.1 1476.5 1409.4 1479C1408.6 1481.5 1408 1484.4 1408 1485.6C1408 1486.7 1407.3 1489.1 1406.4 1490.8C1405.6 1492.6 1403.6 1498.8 1402.1 1504.7C1400.6 1510.7 1398.4 1517.4 1397.2 1519.7C1396 1522 1395 1524.7 1395 1525.8C1395 1526.8 1394.6 1528 1394.1 1528.6C1393.6 1529.1 1392.2 1532.4 1391 1535.9C1389 1541.8 1387.6 1545.2 1382.9 1555.6C1381.8 1557.8 1381 1560 1381 1560.4C1381 1560.8 1379.4 1563.4 1377.5 1566.3C1375.6 1569.1 1374 1572.1 1374 1572.9C1374 1573.6 1373.3 1576.3 1372.4 1578.9C1369.9 1585.8 1371.1 1592 1375.6 1595.9C1377.5 1597.6 1379.7 1599 1380.4 1599C1381.1 1599 1383.8 1600.1 1386.3 1601.5C1388.8 1602.9 1393.5 1604.5 1396.7 1605.1C1399.9 1605.7 1405.9 1606.7 1410.1 1607.4C1414.2 1608.1 1418.3 1609 1419 1609.5C1419.7 1610 1422 1610.7 1423.9 1611.1C1427.5 1611.8 1431.7 1613.4 1444 1618.5C1447.6 1620 1452.8 1622.2 1455.5 1623.3C1458.3 1624.5 1465.7 1628.2 1472.1 1631.7C1478.4 1635.2 1484.1 1638 1484.7 1638C1486.1 1638 1495.9 1643 1499.7 1645.7C1501.4 1647 1503 1648 1503.2 1648C1504.2 1648 1520.6 1658.2 1522.5 1659.9C1523.6 1661 1526 1662.7 1527.8 1663.7C1529.6 1664.8 1536 1670.4 1542.1 1676C1553.5 1686.6 1565.7 1702.7 1564.6 1705.7C1563.8 1707.7 1557.6 1710 1548.5 1711.7C1538.7 1713.5 1510.5 1713.7 1503.5 1712C1500.8 1711.4 1495.4 1710.7 1491.5 1710.5C1487.7 1710.3 1482.9 1709.6 1481 1709C1479.1 1708.3 1474.1 1707.4 1470 1706.9C1460.5 1705.8 1452.7 1704.4 1447 1703C1444.5 1702.4 1435.3 1701 1426.5 1699.9C1417.7 1698.9 1409.1 1697.6 1407.2 1697.1C1405.4 1696.6 1402.4 1696.4 1400.6 1696.7C1398.7 1697 1396.1 1696.6 1394.4 1695.7C1392.8 1694.9 1388.8 1694 1385.5 1693.6C1379.8 1693 1364.2 1690.8 1353.5 1689.1C1340 1686.9 1324.7 1684.7 1307.2 1682.5C1296.6 1681.1 1284.9 1679.3 1281.2 1678.5C1277.5 1677.6 1269.8 1676.5 1264 1676C1252.1 1674.9 1237.5 1672.4 1231.5 1670.5C1229.3 1669.7 1226.1 1668.9 1224.4 1668.5C1222.6 1668.2 1218.4 1665.4 1214.9 1662.4C1211.5 1659.5 1208.3 1657 1207.9 1657C1207.5 1657 1206.4 1656.2 1205.4 1655.3C1204.5 1654.4 1201.6 1652.5 1199 1651C1196.4 1649.6 1191.2 1645.1 1187.4 1641C1181.5 1634.6 1176.9 1630.2 1161.5 1616.2C1160.4 1615.2 1157.5 1611.9 1155 1609C1155 1609 1144.9 1597.8 1138.4 1593.5C1135.1 1591.3 1129.9 1586.9 1126.7 1583.7C1118.1 1574.9 1108.2 1568.5 1108.2 1568.5C1108.2 1568.5 1103.5 1565.9 1101 1563.6C1098.5 1561.3 1095.1 1558.5 1093.5 1557.5C1091.8 1556.4 1088.5 1554 1086 1552C1078.2 1545.8 1064.5 1537.1 1057.5 1533.9C1049.9 1530.5 1022.5 1528.9 1022.5 1528.9C1022.5 1528.9 1014.8 1528 984 1539.2C979.3 1540.9 974.6 1543.2 973.4 1544.2C972.3 1545.2 970.4 1546 970.4 1546C970.4 1546 957 1556.8 952.9 1561.5C951.1 1563.5 946.9 1567.2 943.6 1569.8C927.1 1582.3 903.6 1605.8 894.5 1618.9C890.1 1625.3 875 1640.5 872.3 1641.4C871.2 1641.7 869.4 1643.4 868.2 1645C866.9 1646.7 865.3 1648 864.5 1648C863.7 1648 861.8 1649.2 860.2 1650.8C855.2 1655.5 851.6 1658 849.7 1658C848.7 1658 846.7 1658.6 845.2 1659.4C843.7 1660.2 840.2 1661.1 837.5 1661.5C834.7 1661.9 830.7 1663.3 828.4 1664.6C826.2 1665.8 822 1667.2 819.1 1667.6C816.2 1668 812.3 1669.4 810.3 1670.7C808.3 1672.1 805 1673.4 803.1 1673.7C801.1 1674 798.4 1674.9 797 1675.6C795.6 1676.3 791.6 1677.8 788 1679C784.4 1680.2 780.2 1682 778.5 1683C776.9 1684 773.9 1685.1 772 1685.5C768.2 1686.2 765 1687.6 749.5 1695C729.2 1704.7 710.9 1712 706.9 1712C706.1 1712 703.9 1713.1 702 1714.5C700.1 1715.9 697.2 1717 695.6 1717C693.9 1717 691.1 1717.9 689.4 1718.9C687.7 1719.9 682.1 1722.2 676.9 1723.8C662.4 1728.6 658.7 1729.9 655.8 1731.5C654.4 1732.3 652.5 1733 651.8 1733C651 1733 649.5 1733.9 648.5 1735C647.5 1736.1 645.1 1737.3 643.1 1737.6C641.1 1738 637.3 1739.4 634.5 1740.6C631.8 1741.9 628.7 1743 627.8 1743C626.9 1743 623.1 1744.6 619.3 1746.5C615.6 1748.4 610.4 1750.3 607.7 1750.6C605.1 1751 602.7 1751.7 602.4 1752.1C600.6 1755.1 581.3 1760.3 563.8 1762.5C548.7 1764.5 539.6 1763.9 537.7 1760.9C536.3 1758.7 542.4 1743.2 547.8 1735.3C549.9 1732.1 553.9 1726.1 556.7 1722C564 1711.3 590.9 1684.2 600.2 1678.4C602.4 1677 607.9 1672.6 612.4 1668.7C622.2 1660.1 627.2 1656.2 632.5 1653C634.7 1651.7 639.7 1648 643.6 1644.9C652.2 1638 662.4 1631 663.7 1631C664.3 1631 666.5 1629.6 668.6 1628C673.6 1624 685.4 1618.4 690.8 1617.5C693.7 1617 696 1615.8 698.1 1613.7C700.8 1610.8 701.1 1610 700.7 1605.7C700.4 1602.8 699.4 1599.8 698.1 1598.2C697 1596.7 694.9 1593.4 693.5 1590.8C692.1 1588.2 689.4 1584.8 687.5 1583.3C684 1580.6 674.4 1568.3 673.2 1565.1C672.9 1564.2 671.2 1561.1 669.3 1558.3C667.5 1555.4 665.4 1551.5 664.5 1549.8C663.7 1548 662.7 1545.8 662.2 1545C657.4 1536.7 651.7 1525.3 650.4 1521.8C649.7 1519.7 648 1516.5 646.7 1514.7C644 1511.2 642.3 1506.5 638 1491.5C632.6 1472.5 632.1 1471.1 631.1 1469.1C630.5 1468 630 1465 630 1462.3C630 1459.7 629.3 1454.3 628.5 1450.5C625.5 1437.1 623.8 1428.4 622.4 1419.5C621.6 1414.5 620.4 1408 619.8 1405C617.8 1394.7 616.7 1381.5 616.5 1365.5C616.2 1336.7 614.9 1330.1 609.2 1327.1C605.9 1325.4 586.2 1330 582.3 1333.5C576.6 1338.5 570 1343 570 1343L564.1 1347.4L556.1 1352.5L551.9 1354.6L549.4 1356C549.4 1356 546 1357.8 543.3 1360C538.9 1363.7 525.6 1375.7 525.6 1375.7L521 1379C520.5 1379 517.7 1380.8 514.8 1383C511.9 1385.2 508.1 1387 508.1 1387C507.3 1387 501.9 1392 501.9 1392C501.9 1392 495.8 1397.6 494.2 1398.4L490.7 1401.5L488.8 1403C486.613 1404.76 485.387 1405.74 483.2 1407.5L480 1410.5L476.6 1413.8C476.6 1413.8 472.7 1419 468.7 1423.2C455.7 1436.8 449.1 1445.7 446.5 1453C445.7 1455.2 442.6 1462.2 439.5 1468.5C436.5 1474.9 434 1481.1 434 1482.4C434 1483.7 433.1 1486.9 432.1 1489.6C431 1492.3 429 1497.9 427.5 1502C426.1 1506.1 423.9 1511.7 422.7 1514.4C420.8 1518.7 420.5 1521.1 420.5 1532.4C420.5 1542.6 420.9 1546.2 422.2 1548.5C423.1 1550.1 424.6 1553.7 425.6 1556.5C426.6 1559.2 428.7 1562.6 430.3 1564C432 1565.4 435.2 1568.4 437.6 1570.7C440 1573 444 1576.3 446.5 1578.1C451.4 1581.6 452.3 1584 448.8 1583.9C445.4 1583.8 443.7 1582.9 439 1578.7C434.6 1574.9 432.7 1574.6 426 1576.6C423.8 1577.3 419.8 1583.9 420.5 1585.9C420.8 1586.8 421.1 1590.5 421.2 1594C421.3 1599.8 421 1601 418.4 1604.7C416 1608 415 1608.6 413.7 1607.8C412.8 1607.3 412 1605.1 412 1605.1L410.5 1602L409 1598.7C409 1598.7 408.5 1595 407.9 1593.1C402.7 1576.8 400.3 1573.8 393.2 1574.7C389 1575.3 388.4 1575.9 383.4 1584.3C382.7 1585.3 381.1 1587.3 381.1 1587.3C381.1 1587.3 380 1589.2 380 1590.1C380 1591 379.1 1593.5 378.1 1595.7L375.6 1601.3C375.2 1602.7 374.2 1603 371.8 1602.8C369.2 1602.6 368.1 1601.7 366.3 1598.4C362.5 1591.5 363.6 1583 369.6 1574.8C371.4 1572.2 373 1567.6 373 1567.6L373.9 1564.6C373.9 1564.6 375.1 1559.4 375.5 1553.8C375.9 1548.1 376.6 1543 377.1 1542.4C377.6 1541.8 377.9 1535 377.8 1527.4C377.6 1519.7 378.1 1510.8 378.7 1507.5C379.4 1504.2 380.8 1497 381.9 1491.5C383 1486 384.4 1478.6 384.9 1475C385.7 1470.1 387.8 1464.9 393.6 1453.5C397.8 1445.2 403.1 1435.8 403.1 1435.8L405 1432.3L408.5 1426.4L412 1419.7C412 1419.7 414 1415.4 416.5 1412.2C419 1409.1 421 1405.2 421 1405.2L421.9 1404C421.9 1404 424.3 1401.4 426.1 1398.2C427.9 1395.1 429.9 1392 430.5 1391.5C432.5 1389.7 444.5 1373.7 451.6 1363.2C452.9 1361.4 455 1358.4 456.5 1356.7C457.9 1354.9 461.2 1350.6 463.9 1347C469.6 1339.3 479.1 1329.6 484 1326.5C485.9 1325.2 489.3 1322.5 491.6 1320.4C500 1312.4 509.6 1304.8 522.8 1295.8C524.6 1294.5 528.6 1291.1 531.8 1288.3C534.9 1285.4 538.6 1283 538.6 1283L541 1281L557.9 1269L562.1 1266.7C562.1 1266.7 574.3 1259.7 585.5 1255C615.3 1242.6 626 1235.1 626 1226.6C626 1222.4 624.5 1217.5 622.1 1213C619.6 1208.7 617.3 1188 616.5 1164C616 1149.2 616.3 1141.4 618 1125C619.1 1113.7 620.4 1102.2 620.9 1099.5C623.2 1086.4 624 1082.8 626.5 1074C627.9 1068.8 630 1063 631.1 1061.2C632.1 1059.4 633 1057.2 633 1056.3C633 1055.4 634.1 1053.3 635.4 1051.6C636.7 1049.9 638.8 1046.5 640.1 1044.2C647.1 1031.4 649.9 1027.1 653.3 1023.5C654.8 1021.8 656.8 1018.9 657.8 1017C659.3 1013.8 660.4 1013.2 669 1010.4C677.2 1007.7 678.9 1006.7 681.9 1003C685.1 999.198 685.4 998.298 685.3 992.798C685.1 987.998 684.6 986.198 682.8 984.298C679.2 980.398 677.7 979.998 671.9 981.098C653.4 984.598 642.8 986.298 637.5 986.498C632.2 986.698 618.4 989.198 614 990.798C613.2 991.098 610 991.398 607 991.498C604 991.598 599.5 992.398 597 993.298C594.5 994.098 586.9 995.498 580 996.498C573.2 997.398 567.2 998.398 566.7 998.698C566.2 998.998 560.8 999.098 554.7 998.898C548.5 998.798 541.7 998.698 539.5 998.698C537.3 998.798 528.6 997.898 520.1 996.798C507.9 995.298 503.5 994.298 498.6 991.998C489.8 987.798 477 979.098 468.3 971.298C460.1 963.898 448 949.598 448 947.198C448 946.398 446.7 943.598 445.2 941.098C443.7 938.598 441.4 933.998 440.1 930.998C438.9 927.998 437 923.898 436 921.898C432.6 915.698 431.5 901.998 432.9 885.298C433.6 877.198 434.5 869.898 434.9 869.098C435.4 868.198 436.1 864.198 436.4 860.198C436.8 856.198 437.8 851.398 438.6 849.498C439.4 847.598 440 844.698 440 842.998C440 838.098 445.8 821.398 451.6 809.498C454.6 803.398 457 797.898 457 797.198C457 796.498 461 788.998 465.9 780.698C470.7 772.298 475.8 763.598 477.1 761.298C488.2 741.798 500.1 729.398 500.1 729.398L508.5 718.598C508.5 718.598 515.5 709.998 520.1 705.698C524.7 701.298 532.1 694.298 536.5 690.098C540.9 685.898 547 681.098 550 679.398C553 677.598 558.3 673.798 561.7 670.898C570.9 662.798 574.7 660.198 583.5 655.898C587.9 653.698 592.9 650.998 594.5 649.898C596.2 648.898 598.9 647.498 600.5 646.798C605.2 644.998 616.3 638.998 618.5 637.098C620.4 635.498 623.2 634.098 640 626.298C644.1 624.398 649.3 621.898 651.4 620.798C653.6 619.598 662.1 616.498 670.3 613.798C678.5 611.098 687.6 607.898 690.5 606.498C696.4 603.798 701.2 602.498 708.5 601.498C711.3 601.098 718.2 599.498 723.9 597.898C729.7 596.298 735.5 594.998 736.9 594.998C739.3 594.998 750.2 592.698 769.5 587.898C773.9 586.798 780.2 585.598 783.5 585.098C805.2 581.898 809.8 581.298 812.5 581.298C814.2 581.298 819.8 580.598 825 579.698C830.2 578.698 838.6 577.598 843.5 577.098C865.1 574.898 874 573.798 881.3 572.398C887.5 571.198 900.5 570.798 944.6 570.598C975.1 570.398 1000.4 569.998 1000.7 569.598C1001.3 568.998 1014.6 569.198 1076 570.498Z" fill="black"/>
</svg>
