<svg width="1000" height="1000" viewBox="0 0 1000 1000" fill="none" xmlns="http://www.w3.org/2000/svg">
<path d="M551.025 272.461H441.895L368.896 281.494L289.062 309.326L231.445 359.375L205.811 427.734L218.994 470.215L239.014 486.084L260.986 492.676L323.486 483.154L316.406 494.873L296.875 544.922L303.223 597.656L283.203 606.934L218.994 656.25L184.814 718.506L179.443 759.766L175.781 781.982L204.346 788.574L228.516 768.555L215.332 758.057L212.158 743.164L222.412 708.252L260.986 672.363L294.678 651.123L303.223 716.797L337.646 781.982L278.076 821.045L258.301 856.689L278.076 865.234L424.805 810.303L461.182 768.555L505.615 750.488L545.898 771.973L601.074 821.045L764.404 839.355L771.24 828.369L731.445 794.922L678.467 770.264L699.951 708.496L692.627 628.174L699.951 623.047L764.404 664.795L787.842 710.938L783.203 738.77L823.486 734.375V716.797L811.279 676.025L768.311 616.455L692.139 566.65L699.951 530.273L683.35 489.502L642.578 452.148C660.706 460.661 686.279 468.262 692.871 470.459C699.463 472.656 731.265 477.911 756.104 466.309C777.59 454.891 784.264 445.3 786.865 422.363L768.311 375.977L732.91 332.031L667.969 293.457L551.025 272.461Z" fill="currentColor"/>
<path d="M506.837 264.942C506.446 265.04 500.05 265.186 492.677 265.284C485.304 265.381 475.733 265.723 471.436 266.016C467.14 266.358 457.032 266.797 448.975 267.09C438.917 267.432 433.399 267.823 431.397 268.311C429.786 268.702 426.173 269.141 423.341 269.288C420.509 269.434 416.993 269.678 415.528 269.874C414.063 270.069 411.427 270.264 409.669 270.313C406.593 270.411 403.663 270.606 395.997 271.29C393.995 271.436 391.114 271.876 389.649 272.266C388.184 272.657 386.085 272.95 384.913 272.95C382.813 272.95 378.223 273.975 376.612 274.805C376.124 275.049 374.317 275.391 372.608 275.586C369.288 275.879 359.962 277.93 356.69 279.053C355.616 279.444 353.858 279.883 352.784 280.079C351.71 280.274 349.903 280.811 348.731 281.299C347.608 281.788 345.167 282.471 343.36 282.764C341.554 283.057 339.405 283.741 338.575 284.229C337.745 284.766 336.671 285.157 336.231 285.157C335.792 285.157 334.034 285.792 332.374 286.573C330.665 287.305 328.077 288.233 326.612 288.575C325.147 288.917 323.487 289.502 322.852 289.893C322.218 290.284 319.679 291.26 317.237 292.042C314.747 292.872 312.306 293.799 311.72 294.19C311.182 294.532 307.862 295.997 304.395 297.364C293.604 301.758 287.061 305.323 275.001 313.428C265.186 319.971 265.431 319.825 264.747 319.825C264.356 319.825 262.501 321.241 260.597 322.999C258.692 324.756 256.886 326.172 256.593 326.172C255.909 326.172 255.665 326.417 246.827 335.694C242.823 339.942 235.45 347.608 235.45 347.608C235.45 347.608 228.126 355.616 222.755 365.967C222.315 366.749 221.29 368.409 220.411 369.629C219.532 370.85 218.165 373.292 217.335 375.147C216.505 376.954 215.235 379.346 214.503 380.518C212.11 384.229 210.304 388.233 207.569 395.752C206.983 397.364 206.202 399.317 205.811 400.147C204.64 402.686 203.419 407.52 202.638 412.354C202.345 414.209 201.759 416.749 201.368 417.969C200.977 419.19 200.684 421.534 200.684 423.194C200.684 424.854 200.391 427.784 200.05 429.786C199.317 433.838 199.415 443.653 200.245 447.754C201.222 452.735 203.272 459.229 204.151 460.401C204.688 461.036 205.079 462.012 205.079 462.598C205.079 463.184 205.421 464.112 205.811 464.698C206.202 465.235 207.276 467.188 208.204 468.946C209.132 470.752 210.401 472.852 211.036 473.633C211.671 474.415 213.282 476.514 214.6 478.272C218.214 483.057 223.78 487.598 231.983 492.579C234.327 493.995 236.671 495.118 237.208 495.118C237.794 495.118 238.966 495.557 239.845 496.045C240.724 496.583 242.579 497.168 243.897 497.364C245.265 497.51 246.681 497.852 247.071 498.047C247.804 498.438 254.395 499.317 260.743 499.854C262.501 500.001 265.724 500.098 267.921 500.049C270.118 500.001 272.804 500.391 272.804 500.391L288.087 499.561C288.087 499.561 297.706 497.803 302.54 497.12C304.493 496.827 306.397 496.436 306.837 496.29C308.204 495.752 307.716 497.315 305.421 500.538C302.833 504.249 297.608 514.551 296.876 517.432C296.583 518.555 296.046 520.069 295.655 520.85C295.265 521.583 294.923 522.608 294.923 523.096C294.923 523.584 294.386 525.586 293.751 527.491C293.067 529.444 292.53 531.788 292.53 532.715C292.53 533.643 292.286 535.743 291.944 537.354C291.261 541.065 291.114 542.53 290.479 551.758C289.454 567.09 289.942 582.178 291.798 590.235C292.432 593.116 292.97 595.801 292.97 596.192C292.97 597.12 284.034 601.124 284.034 601.124C284.034 601.124 280.763 602.588 279.786 603.174C278.809 603.761 277.473 604.148 276.466 604.639C275.458 605.13 274.659 605.47 273.927 605.714C273.194 605.958 269.776 608.008 269.532 608.204C269.288 608.4 266.114 610.353 264.845 611.182C263.575 612.011 258.302 615.968 256.544 617.334C255.86 617.921 254.395 618.898 253.175 619.874C252.1 620.85 250.44 622.168 249.513 622.803C248.536 623.536 247.071 624.757 246.095 625.538C245.167 626.465 243.067 628.077 241.456 629.151C239.845 630.225 237.403 632.178 236.085 633.497C234.718 634.766 232.227 637.11 230.47 638.624C225.831 642.676 217.286 651.709 217.286 651.709C217.286 651.709 215.968 653.711 214.356 655.567C212.745 657.422 212.595 657.995 211.427 659.522C211.237 659.77 211.128 659.908 210.938 660.157C210.359 660.914 209.473 662.111 209.473 662.111C209.473 662.111 208.245 663.774 207.52 664.796C206.539 666.181 206.202 666.602 205.03 668.213C203.809 669.825 201.515 672.901 199.952 675.001C196.681 679.346 197.022 678.711 191.798 688.965C189.649 693.116 187.696 696.729 187.501 697.022C186.085 698.78 179.591 712.94 178.468 716.553C177.784 718.946 176.954 721.485 176.661 722.168C176.368 722.852 175.977 725.782 175.977 725.782L175.05 729.346C175.05 729.346 174.317 731.446 174.366 733.057L173.878 736.719C173.878 736.719 173.696 738.214 173.585 739.259C173.484 740.207 173.341 741.358 173.292 741.797C173.292 742.286 173.292 745.167 173.292 748.145C173.341 751.172 173.145 754.932 172.901 756.495C172.608 758.057 172.657 760.01 172.657 760.01L171.925 762.159L170.899 763.917C170.899 763.917 170.02 766.016 168.995 768.213C167.432 771.436 167.042 772.803 166.993 775.147C166.944 779.59 168.995 784.18 168.995 784.18C168.995 784.18 169.727 785.547 170.118 786.377C170.899 788.135 175.05 791.993 175.294 792.238C175.538 792.482 176.27 792.92 176.27 792.92C176.27 792.92 181.446 794.532 184.376 793.995C185.938 793.702 187.257 793.458 187.354 793.458C187.403 793.458 188.282 792.676 189.259 791.749C190.186 790.821 191.163 790.04 191.358 790.04C191.798 790.04 193.604 791.7 194.19 792.579C195.509 794.727 201.075 797.51 202.979 797.071C205.811 796.436 210.206 793.897 211.231 792.334C211.768 791.456 212.891 789.795 213.722 788.575C214.552 787.354 215.333 785.938 215.431 785.401C215.577 784.62 215.919 784.473 217.286 784.571C218.214 784.668 219.386 784.961 219.874 785.206C221.876 786.329 227.686 783.057 229.981 779.493C231.007 777.979 231.007 773.975 229.932 769.336C229.395 766.797 229.054 766.309 225.88 763.526C223.975 761.915 221.192 759.327 219.727 757.911C217.14 755.323 217.042 755.127 216.505 751.514C215.675 745.948 216.358 742.286 219.63 734.278C220.704 731.69 221.729 728.809 221.925 727.93C222.12 727.051 222.559 725.831 222.95 725.245C223.341 724.659 223.634 723.926 223.634 723.633C223.634 723.389 224.171 722.022 224.806 720.704C225.489 719.336 226.173 717.53 226.319 716.7C226.71 715.04 228.37 711.915 229.347 711.182C229.688 710.889 230.518 709.961 231.202 709.034C232.52 707.178 240.089 698.829 242.432 696.631C243.263 695.85 245.313 694.239 247.071 692.969C248.829 691.749 251.807 689.502 253.663 687.94C255.567 686.426 257.325 685.108 257.667 685.01C258.497 684.717 267.628 677.295 270.655 674.415L272.95 672.852C273.682 672.461 275.489 671.485 276.954 670.752C278.37 669.971 280.323 668.653 281.251 667.774C284.181 664.991 288.526 662.012 289.21 662.256C289.698 662.452 289.893 664.063 289.942 668.555C290.138 678.907 291.895 693.018 294.239 703.126C295.557 708.79 295.948 710.596 296.876 716.309C297.852 722.315 299.952 730.42 301.026 732.422C301.368 733.106 302.247 735.547 302.979 737.891C303.712 740.284 304.493 742.286 304.737 742.481C304.981 742.627 305.177 743.165 305.177 743.653C305.177 744.141 305.714 745.215 306.397 745.997C307.081 746.827 307.618 747.657 307.618 747.95C307.618 748.78 309.962 753.809 310.499 754.151C310.792 754.297 311.036 754.786 311.036 755.225C311.036 755.616 311.475 756.543 311.964 757.276C312.452 757.959 314.161 761.036 315.723 764.063C317.335 767.139 318.848 769.971 319.093 770.411C321.241 773.926 322.755 776.026 324.806 778.418L327.198 781.202L325.733 781.934C324.952 782.374 323.829 782.715 323.292 782.715C322.755 782.715 321.729 783.252 320.997 783.936C320.265 784.62 319.386 785.157 318.995 785.157C318.653 785.157 318.214 785.499 318.067 785.889C317.872 786.329 316.309 787.5 314.503 788.575C312.745 789.649 309.327 792.09 306.886 793.995C304.493 795.899 301.905 797.706 301.173 798.047C300.489 798.34 298.292 800.049 296.29 801.856C292.286 805.469 285.841 810.743 283.546 812.305C282.667 812.891 280.177 815.137 277.931 817.334C275.733 819.532 273.731 821.29 273.536 821.29C272.95 821.29 269.923 824.61 267.725 827.637C266.602 829.102 264.6 831.543 263.184 833.008C261.768 834.473 260.206 836.573 259.718 837.647C259.229 838.721 258.302 840.333 257.618 841.26C256.886 842.188 256.349 843.165 256.349 843.36C256.349 843.604 255.811 844.629 255.128 845.655C254.493 846.729 253.809 848.194 253.663 848.975C253.321 850.489 252.735 852.051 251.661 854.151C250.831 855.811 250.782 859.815 251.515 863.379C251.905 865.235 252.54 866.504 253.858 867.823C256.007 870.118 257.227 870.752 260.89 871.485C262.403 871.827 264.845 872.315 266.309 872.608C268.263 873.047 269.874 873.047 272.559 872.608C274.513 872.315 278.37 871.729 281.153 871.338C283.985 870.899 289.405 869.483 293.556 868.116C297.559 866.797 301.222 865.723 301.612 865.723C302.052 865.723 303.077 865.284 303.956 864.747C304.835 864.209 306.934 863.331 308.595 862.793C310.304 862.256 311.915 861.622 312.208 861.377C312.501 861.133 313.868 860.645 315.186 860.303C317.432 859.766 324.659 856.69 330.909 853.663C332.276 853.028 334.913 852.051 336.768 851.563C338.575 851.075 340.968 850.342 342.042 849.903C343.116 849.512 344.483 849.17 345.02 849.122C345.606 849.122 346.632 848.682 347.315 848.145C347.999 847.608 348.829 847.168 349.171 847.168C349.464 847.168 350.88 846.631 352.296 845.948C353.712 845.313 356.348 844.288 358.204 843.702C360.059 843.067 362.354 842.09 363.282 841.456C364.21 840.821 365.186 840.333 365.479 840.333C366.358 840.333 373.243 837.305 374.122 836.573C374.561 836.182 376.417 835.45 378.272 834.961C381.934 833.985 385.059 832.764 385.45 832.081C385.743 831.641 388.868 830.469 394.776 828.614C396.681 827.979 399.171 827.002 400.44 826.417C401.661 825.782 403.468 825.098 404.493 824.952C405.47 824.756 407.423 824.073 408.741 823.389C410.108 822.754 413.526 821.68 416.358 820.997C419.19 820.362 422.12 819.336 422.901 818.848C423.634 818.311 424.513 817.872 424.903 817.872C426.124 817.872 428.663 815.967 430.128 813.965C430.958 812.842 432.52 811.28 433.692 810.547C436.329 808.741 450.587 793.897 451.807 791.7C452.589 790.235 456.104 786.133 456.544 786.133C456.788 786.133 458.839 784.327 461.085 782.129C465.235 777.979 466.993 776.465 472.022 772.315C481.007 764.942 483.985 764.209 483.985 764.209C483.985 764.209 485.853 763.273 487.062 762.697C489.643 761.466 491.261 760.45 493.751 759.717C498.39 758.252 501.319 757.911 505.128 758.35C510.157 758.887 510.987 759.131 513.575 760.938C514.747 761.768 516.065 762.647 516.505 762.94C519.141 764.6 525.782 769.19 529.542 771.973C531.983 773.731 534.376 775.538 534.962 775.928C535.548 776.319 537.598 778.028 539.552 779.786C541.505 781.543 544.19 783.936 545.557 785.157C546.973 786.377 549.61 789.014 551.515 791.016C553.37 793.018 556.593 796.29 558.595 798.34C560.597 800.342 562.94 802.784 563.77 803.711C564.6 804.639 566.114 806.25 567.188 807.227C568.214 808.204 569.532 809.522 570.118 810.157C573.731 814.161 585.206 823.975 588.575 825.977C590.138 826.905 592.53 827.881 593.849 828.125C595.167 828.418 596.534 828.76 596.827 828.956C597.12 829.151 598.39 829.346 599.61 829.395C600.831 829.444 603.37 829.737 605.225 830.03C610.157 830.909 614.112 831.397 621.827 832.227C625.587 832.618 629.395 833.106 630.274 833.252C631.739 833.545 640.772 834.717 645.509 835.254C648.048 835.547 654.737 836.377 659.327 836.963C661.524 837.256 664.991 837.696 666.993 837.94C668.995 838.184 671.632 838.575 672.852 838.868C675.001 839.356 681.886 840.04 690.919 840.772C693.458 840.967 696.046 841.358 696.632 841.7C697.218 842.042 698.341 842.286 699.073 842.286C699.854 842.286 701.661 842.579 703.175 842.969C704.639 843.36 709.473 844.141 713.868 844.678C718.311 845.264 723.048 845.997 724.366 846.387C725.733 846.729 727.686 847.071 728.761 847.12C729.835 847.12 733.302 847.413 736.427 847.754C743.36 848.438 759.473 847.608 761.964 846.436C762.794 846.045 765.089 845.02 767.091 844.19C771.339 842.432 771.973 841.944 773.927 838.965C775.538 836.524 775.733 834.668 774.854 829.786C774.513 827.881 773.731 826.026 772.511 824.219C771.534 822.754 770.411 820.801 770.069 819.922C769.727 819.092 769.239 818.36 769.044 818.36C768.897 818.36 766.749 816.163 764.356 813.428C761.964 810.694 759.034 807.813 757.813 806.983C756.593 806.153 753.516 803.76 750.929 801.661C748.341 799.561 745.948 797.852 745.606 797.852C745.265 797.852 742.481 796.29 739.405 794.434C736.329 792.53 733.643 791.016 733.497 791.016C732.862 791.016 718.849 783.79 715.772 781.836C714.796 781.25 713.526 780.762 712.891 780.762C712.306 780.762 710.987 780.323 710.011 779.834C706.983 778.174 700.538 775.293 697.804 774.366C696.339 773.829 694.63 773.096 693.995 772.706C693.409 772.315 692.481 771.973 691.993 771.973C691.456 771.973 690.772 771.631 690.431 771.241C690.04 770.801 688.966 770.508 687.647 770.508H685.45L685.792 768.897C685.987 768.067 686.524 766.504 687.061 765.479C687.55 764.454 687.989 763.331 687.989 762.94C687.989 762.549 688.331 761.524 688.673 760.645C689.063 759.766 690.186 756.934 691.114 754.346C692.042 751.807 693.263 748.829 693.8 747.754C694.337 746.729 695.02 744.092 695.362 741.944C695.704 739.795 696.241 737.5 696.632 736.817C696.973 736.133 697.266 734.815 697.266 733.887C697.266 732.959 697.95 730.323 698.731 728.028C699.952 724.756 700.343 722.559 700.733 717.53C700.977 714.014 701.368 710.303 701.612 709.229C703.028 703.272 704.542 691.309 704.786 684.766C704.884 682.129 704.639 677.198 704.249 673.829C703.907 670.459 703.468 664.454 703.321 660.401C703.175 656.397 702.93 652.881 702.784 652.686C702.638 652.442 702.345 650.782 702.1 648.975C701.661 645.655 700.684 640.918 699.708 637.452C698.487 633.155 698.243 633.545 702.296 633.545C705.714 633.545 708.595 635.352 708.595 635.352L711.817 637.208C711.817 637.208 713.868 638.184 715.675 639.405L721.339 642.334C721.339 642.334 726.466 644.483 729.493 646.973C730.714 647.999 732.862 649.512 734.278 650.391C735.694 651.221 736.817 652.588 736.817 652.588L738.917 654.249L749.122 664.6L752.149 667.481L754.395 669.776L756.251 672.51L759.034 676.514L761.72 680.176C761.72 680.176 763.77 682.569 764.161 683.35C765.479 685.889 770.704 693.018 770.704 693.018L771.973 695.411L773.438 699.22C774.122 700.685 775.147 703.615 775.147 703.615L776.124 705.324L776.856 707.227L777.54 708.448C777.54 708.448 779.249 712.452 779.591 716.163C779.786 718.262 779.639 719.092 778.614 720.948C777.882 722.168 777.345 724.073 777.345 724.073L776.368 726.221L775.391 729.395L774.854 732.764C774.854 732.764 773.536 740.87 773.975 743.702C774.268 745.606 774.757 746.68 775.782 747.657C777.686 749.366 780.714 750.977 782.13 750.977C784.034 750.977 791.505 747.022 792.921 745.264C794.093 743.799 795.167 743.262 795.899 744.043C796.632 744.825 796.925 745.606 798.243 746.973C800.44 749.463 800.636 749.561 803.223 749.61C807.081 749.708 809.962 748.292 811.915 745.362C812.745 744.092 813.575 742.627 813.575 742.627C813.575 742.627 815.04 742.676 816.651 743.262C821.729 745.215 824.22 744.581 828.809 739.942C832.032 736.719 832.716 735.157 832.227 732.276C831.69 729.346 828.956 721.436 827.882 719.727C827.296 718.799 826.466 716.797 826.466 716.797C826.466 716.797 825.538 715.088 824.854 714.551C823.829 713.672 823.487 712.696 822.95 709.424C821.876 702.686 820.167 697.461 820.167 697.461C820.167 697.461 819.093 694.727 818.653 693.116C818.214 691.504 817.53 689.161 817.14 687.94C816.749 686.67 816.407 684.668 816.407 684.668L815.968 683.399C815.968 683.399 815.382 682.227 815.186 681.202C814.991 680.127 814.454 678.418 813.917 677.393C813.429 676.417 812.989 675.05 812.989 675.05L812.061 673.389L810.499 671.29C810.499 671.29 808.839 667.92 807.569 665.772C806.349 663.624 805.177 661.231 804.981 660.45C804.639 659.034 801.905 655.225 798.145 650.879C797.12 649.659 795.899 647.901 795.46 646.973C795.02 646.045 793.946 644.288 793.067 643.116C792.237 641.944 791.505 640.185 791.505 640.04C791.505 639.894 791.358 639.648 791.065 639.161C790.772 638.673 789.063 637.159 786.329 633.057C782.765 627.735 772.657 616.846 769.19 614.649C768.018 613.917 766.163 611.817 766.163 611.817L755.616 601.124L751.075 597.803C751.075 597.803 744.434 592.188 742.335 591.114C740.528 590.235 734.473 585.792 733.399 584.571C732.276 583.35 727.54 580.665 727.54 580.665L721.632 577.295L718.946 576.172L716.993 575.44L715.04 574.708L713.136 573.731L711.475 572.754L709.766 572.022L707.911 571.29L705.86 570.557L702.931 569.581C702.931 569.581 701.266 569.127 700.196 568.848C699.453 568.654 698.292 568.36 698.292 568.36C698.292 568.36 697.364 568.116 697.608 566.504C697.755 565.528 698.389 563.379 699.024 561.768C699.61 560.157 700.391 557.862 700.684 556.641C701.026 555.42 701.466 554.2 701.661 553.956C702.1 553.418 702.345 551.612 703.223 543.311C704.054 534.961 702.979 528.077 699.171 518.555C698.39 516.553 697.755 514.649 697.755 514.356C697.755 514.112 697.12 512.989 696.339 511.915C695.606 510.889 694.581 508.887 694.093 507.569C693.604 506.202 692.823 504.688 692.384 504.151C691.895 503.614 690.089 500.196 688.282 496.534C686.524 492.92 684.62 489.502 684.034 488.965C683.448 488.477 682.13 486.817 681.104 485.303C680.079 483.741 678.565 481.983 677.735 481.397C674.757 479.102 669.727 474.17 670.02 473.829C670.216 473.682 673.194 474.952 676.612 476.661C682.618 479.688 683.106 479.883 688.233 480.42C691.212 480.713 694.288 481.104 695.069 481.202C695.899 481.299 697.852 481.397 699.464 481.446C701.075 481.495 703.712 481.836 705.323 482.227C706.934 482.569 709.376 482.862 710.694 482.813C712.061 482.813 715.333 482.959 718.018 483.155C725.831 483.79 731.251 483.545 735.108 482.374C737.013 481.788 739.942 481.251 741.7 481.251C743.458 481.202 746.192 480.86 747.804 480.518C749.415 480.176 752.393 479.59 754.395 479.151C760.401 477.881 763.136 476.709 766.065 474.268C769.776 471.094 773.243 467.481 775.05 464.844C775.88 463.624 777.247 461.963 778.077 461.133C781.251 457.911 788.429 446.436 788.819 443.946C789.015 442.92 789.552 440.772 790.089 439.112C791.212 435.499 791.261 431.69 790.284 427.295C789.893 425.538 789.259 422.364 788.868 420.264C788.477 418.165 787.794 415.772 787.354 414.893C786.915 414.014 786.036 410.84 785.352 407.813C784.718 404.786 783.985 401.954 783.692 401.465C783.448 401.026 782.423 398.243 781.446 395.313C778.956 387.891 776.905 383.79 771.729 375.733C770.85 374.366 769.434 371.973 768.507 370.362C767.628 368.751 766.7 367.188 766.505 366.944C765.138 365.284 763.184 361.915 763.184 361.231C763.184 360.792 762.354 359.522 761.28 358.399C760.255 357.276 759.132 355.811 758.741 355.079C757.911 353.467 749.122 343.848 742.384 337.159C735.352 330.225 724.659 321.094 719.386 317.53C716.895 315.87 713.819 313.672 712.55 312.598C711.231 311.524 709.229 310.157 708.057 309.571C706.886 308.985 704.884 307.813 703.663 306.934C701.173 305.225 692.628 300.977 690.577 300.489C689.845 300.293 688.722 299.854 688.038 299.512C687.354 299.122 686.524 298.829 686.231 298.829C685.938 298.829 684.718 298.145 683.497 297.364C682.276 296.534 680.323 295.704 679.151 295.508C677.979 295.264 674.854 293.946 672.169 292.579C669.532 291.163 666.895 290.04 666.261 290.04C665.626 290.04 664.063 289.307 662.794 288.428C661.378 287.452 658.692 286.329 656.251 285.694C653.956 285.059 650.929 284.034 649.464 283.35C648.048 282.715 645.753 281.983 644.386 281.69C643.018 281.446 640.235 280.616 638.233 279.834C634.229 278.321 630.518 277.344 628.809 277.344C627.686 277.344 620.557 275.196 619.044 274.366C618.556 274.122 617.384 273.926 616.456 273.926C615.479 273.926 613.917 273.584 612.94 273.194C612.013 272.803 610.352 272.461 609.327 272.461C608.302 272.461 606.886 272.217 606.104 271.924C605.372 271.631 603.224 271.338 601.319 271.241C599.464 271.143 596.925 270.704 595.753 270.313C594.581 269.874 592.14 269.434 590.284 269.288C588.429 269.19 585.548 268.848 583.888 268.506C582.179 268.213 578.175 267.92 574.952 267.823C562.989 267.53 551.515 266.944 550.782 266.602C550.391 266.407 548.194 266.211 545.899 266.163C543.604 266.163 540.235 265.967 538.331 265.772C536.475 265.528 531.837 265.43 528.077 265.479C517.335 265.674 509.425 265.479 508.302 265.04C507.911 264.893 507.227 264.844 506.837 264.942ZM525.391 278.565C531.69 278.711 542.579 279.249 549.513 279.786C556.495 280.372 563.184 280.762 564.405 280.713C569.239 280.518 583.399 281.397 586.28 282.081C587.94 282.471 589.747 282.667 590.284 282.471C590.821 282.325 591.993 282.569 592.872 283.008C593.751 283.448 595.118 283.79 595.948 283.79C596.729 283.741 598.438 284.083 599.757 284.473C601.026 284.913 602.345 285.157 602.686 285.01C602.979 284.913 603.809 285.059 604.493 285.401C605.177 285.743 606.837 286.036 608.155 286.036C609.522 285.987 611.573 286.377 612.794 286.866C614.015 287.354 615.675 287.745 616.456 287.696C617.286 287.696 620.558 288.526 623.78 289.551C627.003 290.577 630.958 291.651 632.569 291.993C634.181 292.286 636.817 293.067 638.429 293.702C640.04 294.336 642.237 294.971 643.263 295.118C644.337 295.264 646.29 295.899 647.657 296.534C651.368 298.34 652.784 298.877 656.153 299.854C657.862 300.342 659.522 300.928 659.815 301.172C660.792 301.954 673.536 307.52 675.05 307.862C675.88 308.057 677.833 308.936 679.493 309.815C681.104 310.694 684.132 311.963 686.134 312.647C690.284 314.063 692.774 315.235 695.899 317.335C697.071 318.067 699.22 319.288 700.684 320.02C704.347 321.729 713.868 328.711 719.63 333.838C724.708 338.331 726.905 340.186 728.761 341.553C729.835 342.334 732.276 344.629 734.181 346.631C738.526 351.124 738.38 350.928 742.188 354.639C746.436 358.692 748.634 361.573 753.077 368.702C754.347 370.752 755.372 372.608 755.372 372.803C755.372 373.145 760.548 381.202 762.11 383.301C762.647 383.985 763.966 386.377 765.138 388.672C766.261 390.967 767.384 393.165 767.628 393.555C768.751 395.508 769.727 398.145 771.046 402.833C773.341 411.133 773.536 411.817 773.975 413.086C774.415 414.258 776.075 421.29 777.589 428.37C778.223 431.25 778.223 431.983 777.589 434.424C777.198 435.987 776.856 437.549 776.856 437.891C776.856 438.526 774.61 442.334 772.462 445.508C772.071 446.094 771.29 447.315 770.753 448.194C769.386 450.489 762.501 458.79 759.913 461.329C757.472 463.721 753.419 465.235 746.241 466.504C743.897 466.944 740.186 467.627 738.038 468.018C729.981 469.532 726.954 469.727 720.704 469.239C717.335 468.946 712.306 468.604 709.473 468.555C700.587 468.262 695.753 467.823 693.214 467.042C691.847 466.651 689.649 466.309 688.282 466.309C685.792 466.309 684.083 465.674 677.247 462.159C674.708 460.889 666.895 458.008 665.919 458.008C665.333 458.008 663.477 457.227 661.768 456.299C660.059 455.372 658.448 454.59 658.204 454.59C657.911 454.59 655.958 453.711 653.858 452.686C651.71 451.612 649.464 450.635 648.829 450.44C648.194 450.245 646.192 449.415 644.386 448.633C641.749 447.51 640.284 447.168 637.55 447.168C633.106 447.12 632.325 447.364 630.909 449.61C629.835 451.27 629.835 451.563 630.372 453.956C630.958 456.251 631.397 456.788 635.157 460.059C637.403 462.012 640.675 464.649 642.433 465.918C644.141 467.188 647.608 470.069 650.05 472.315C652.54 474.561 655.421 477.002 656.495 477.735C659.571 479.786 668.946 488.624 673.097 493.409C675.538 496.192 678.077 500.635 681.153 507.325C681.69 508.545 682.618 510.206 683.253 511.036C683.839 511.866 684.669 513.477 685.059 514.698C685.45 515.87 686.231 517.579 686.817 518.458C687.452 519.336 688.575 522.315 689.405 525.049C690.284 527.784 691.114 530.567 691.309 531.25C691.651 532.325 691.651 541.016 691.309 545.411C691.163 546.973 689.942 551.368 688.917 554.102C688.673 554.737 688.477 555.665 688.477 556.202C688.477 556.69 688.282 557.52 688.038 558.008C687.794 558.448 687.061 560.254 686.475 562.012C685.89 563.77 684.669 566.309 684.669 566.309L684.571 569.727C684.571 569.727 685.45 572.461 685.792 572.999C686.134 573.536 686.964 575.684 686.964 575.684C686.964 575.684 690.011 578.529 692.286 579.883C695.546 581.824 701.417 583.204 701.417 583.204L704.249 584.131L706.837 585.157L708.546 585.938L721.729 592.09L722.999 592.774C722.999 592.774 724.854 593.897 726.515 595.215C728.224 596.583 730.47 598.145 731.495 598.682C732.569 599.17 733.399 600.098 733.399 600.098L734.522 601.026C734.522 601.026 741.016 605.225 744.093 607.715C744.972 608.448 747.755 610.352 747.755 610.352L753.907 616.309L763.526 625.977C763.526 625.977 770.997 632.667 770.997 633.35L773.097 635.938C773.097 635.938 776.222 639.502 777.54 641.456C778.858 643.36 780.567 645.215 780.567 645.215L781.251 646.387L781.983 647.95L782.716 649.463L783.643 650.635L785.157 652.393C785.157 652.393 786.329 654.2 786.964 654.639C787.55 655.03 788.087 655.713 788.087 656.104C788.087 656.543 789.112 657.911 790.43 659.229C791.7 660.547 793.165 662.159 793.702 662.842C794.239 663.575 794.923 664.405 795.167 664.698C795.46 665.04 795.997 666.065 796.388 666.993C796.729 667.92 797.559 669.239 798.194 669.971C798.78 670.655 799.317 671.436 799.317 671.729C799.317 671.973 799.952 673.194 800.782 674.366C801.563 675.538 802.247 677.54 802.247 677.54L802.979 679.2L804.005 682.667L804.688 685.547L805.665 687.842C805.665 687.842 806.446 690.723 806.69 691.358C806.983 692.042 807.374 693.458 807.618 694.532C807.813 695.655 808.448 697.754 808.985 699.219C810.841 704.346 811.915 708.79 812.501 713.379C813.087 717.872 813.136 718.067 815.382 720.508C816.602 721.875 818.214 723.975 818.897 725.147C820.216 727.344 821.046 730.518 820.509 731.104C819.825 731.788 817.677 729.346 816.602 726.709C815.968 725.196 814.942 723.389 814.307 722.754C813.233 721.68 812.989 721.68 810.889 722.217C806.837 723.194 805.958 725.293 805.714 733.985C805.616 736.329 804.932 735.499 804.2 732.276C803.321 728.174 802.589 726.563 800.929 725C799.757 723.877 799.268 723.731 797.511 723.975C795.216 724.268 794.679 724.854 790.772 730.86C787.696 735.547 786.671 736.817 785.792 736.817C785.255 736.817 785.108 736.475 785.304 735.694C785.499 735.108 785.645 733.644 785.938 732.422C786.231 731.201 787.306 728.126 788.526 725.586C790.577 721.241 790.723 720.655 790.919 716.114C791.114 711.573 789.828 707.519 789.503 706.788C789.178 706.056 788.917 705.372 788.624 704.346C787.843 700.977 786.036 696.192 784.083 691.993L782.227 687.208L781.104 685.401L775.245 677.491L773.292 674.805L770.02 669.336L768.751 667.139C768.751 667.139 766.261 664.161 764.796 662.208C763.331 660.206 760.206 657.325 760.206 657.325L758.009 655.127C758.009 655.127 753.516 649.61 750.733 647.559C749.415 646.534 747.315 644.678 747.315 644.678L743.946 642.334C743.946 642.334 739.991 639.795 738.087 638.233C736.182 636.67 734.278 635.303 733.888 635.108C733.497 634.913 732.813 634.571 732.423 634.375C732.032 634.131 730.47 633.301 729.005 632.569C727.54 631.788 725.391 630.469 724.268 629.59C723.145 628.76 721.192 627.637 719.874 627.149C718.604 626.661 716.749 625.782 715.821 625.147C714.893 624.512 713.77 624.024 713.282 624.024C712.794 624.024 711.72 623.584 710.841 623.047C709.962 622.51 708.302 621.973 707.179 621.778C706.007 621.631 705.079 621.29 705.079 621.094C705.079 620.606 700.098 619.581 697.804 619.629C697.169 619.629 695.899 619.434 695.069 619.19C694.141 618.946 692.384 618.946 690.772 619.239C688.477 619.629 687.843 619.971 686.671 621.485C683.546 625.586 683.497 627.149 686.28 634.131C688.331 639.161 690.089 645.752 690.626 650.635C690.724 651.172 691.016 653.126 691.309 655.03C692.286 660.938 693.116 673.78 693.067 681.885C693.067 690.43 691.554 703.76 689.942 709.913C689.698 710.889 689.356 713.526 689.161 715.821C688.966 718.116 688.526 720.948 688.184 722.168C687.794 723.389 687.501 724.805 687.501 725.391C687.501 725.928 687.159 727.1 686.72 727.93C686.329 728.809 685.352 731.836 684.62 734.717C683.888 737.647 682.813 740.918 682.227 742.042C681.641 743.165 681.153 744.483 681.153 745.02C681.153 745.508 680.958 746.094 680.714 746.387C680.47 746.631 679.786 748.243 679.2 749.952C678.223 752.833 677.54 754.493 675.245 759.571C674.708 760.645 674.317 761.719 674.317 761.915C674.317 762.11 673.536 763.379 672.608 764.795C671.681 766.163 670.899 767.627 670.899 768.018C670.899 768.36 670.557 769.678 670.118 770.948C668.897 774.317 669.483 777.344 671.681 779.249C672.608 780.079 673.682 780.762 674.024 780.762C674.366 780.762 675.684 781.299 676.905 781.983C678.126 782.667 680.421 783.448 681.983 783.741C683.546 784.034 686.475 784.522 688.526 784.864C690.528 785.206 692.53 785.645 692.872 785.889C693.214 786.133 694.337 786.475 695.265 786.67C697.022 787.012 699.073 787.793 705.079 790.284C706.837 791.016 709.376 792.09 710.694 792.627C712.061 793.213 715.675 795.02 718.8 796.729C721.876 798.438 724.659 799.805 724.952 799.805C725.636 799.805 730.421 802.247 732.276 803.565C733.106 804.2 733.888 804.688 733.985 804.688C734.473 804.688 742.481 809.668 743.409 810.499C743.946 811.036 745.118 811.866 745.997 812.354C746.876 812.891 750.001 815.625 752.979 818.36C758.546 823.536 764.503 831.397 763.966 832.862C763.575 833.838 760.548 834.961 756.104 835.792C751.319 836.67 737.55 836.768 734.132 835.938C732.813 835.645 730.177 835.303 728.272 835.206C726.417 835.108 724.073 834.766 723.145 834.473C722.218 834.131 719.776 833.692 717.774 833.448C713.136 832.911 709.327 832.227 706.544 831.543C705.323 831.25 700.831 830.567 696.534 830.03C692.237 829.542 688.038 828.907 687.11 828.663C686.231 828.418 684.766 828.321 683.888 828.467C682.96 828.614 681.69 828.418 680.86 827.979C680.079 827.588 678.126 827.149 676.515 826.954C673.731 826.661 666.114 825.586 660.89 824.756C654.298 823.682 646.827 822.608 638.282 821.534C633.106 820.85 627.393 819.971 625.587 819.581C623.78 819.141 620.02 818.604 617.188 818.36C611.378 817.823 604.249 816.602 601.319 815.674C600.245 815.284 598.683 814.893 597.852 814.698C596.974 814.551 594.923 813.184 593.214 811.719C591.554 810.303 589.991 809.083 589.796 809.083C589.6 809.083 589.063 808.692 588.575 808.252C588.136 807.813 586.72 806.885 585.45 806.153C584.181 805.469 581.642 803.272 579.786 801.27C576.905 798.145 574.659 795.997 567.14 789.161C566.602 788.672 565.186 787.061 563.966 785.645C563.966 785.645 559.034 780.176 555.86 778.077C554.249 777.002 551.71 774.854 550.147 773.292C545.948 768.995 541.114 765.87 541.114 765.87C541.114 765.87 538.819 764.6 537.598 763.477C536.378 762.354 534.718 760.987 533.936 760.499C533.106 759.961 531.495 758.79 530.274 757.813C526.466 754.786 519.776 750.538 516.358 748.975C512.647 747.315 499.268 746.534 499.268 746.534C499.268 746.534 495.509 746.094 480.47 751.563C478.175 752.393 475.88 753.516 475.294 754.004C474.757 754.493 473.829 754.883 473.829 754.883C473.829 754.883 467.286 760.157 465.284 762.452C464.405 763.428 462.354 765.235 460.743 766.504C452.686 772.608 441.212 784.083 436.768 790.479C434.62 793.604 427.247 801.026 425.929 801.465C425.391 801.612 424.513 802.442 423.927 803.223C423.292 804.053 422.511 804.688 422.12 804.688C421.729 804.688 420.802 805.274 420.02 806.055C417.579 808.35 415.821 809.571 414.893 809.571C414.405 809.571 413.429 809.864 412.696 810.254C411.964 810.645 410.255 811.084 408.936 811.28C407.569 811.475 405.616 812.159 404.493 812.793C403.419 813.379 401.368 814.063 399.952 814.258C398.536 814.454 396.632 815.137 395.655 815.772C394.679 816.456 393.067 817.09 392.14 817.237C391.163 817.383 389.845 817.823 389.161 818.165C388.477 818.506 386.524 819.239 384.766 819.825C383.009 820.411 380.958 821.29 380.128 821.778C379.347 822.266 377.882 822.803 376.954 822.999C375.098 823.34 373.536 824.024 365.968 827.637C356.056 832.374 347.12 835.938 345.167 835.938C344.776 835.938 343.702 836.475 342.774 837.159C341.847 837.842 340.431 838.379 339.649 838.379C338.819 838.379 337.452 838.819 336.622 839.307C335.792 839.795 333.057 840.918 330.518 841.7C323.438 844.043 321.632 844.678 320.216 845.459C319.532 845.85 318.604 846.192 318.263 846.192C317.872 846.192 317.14 846.631 316.651 847.168C316.163 847.706 314.991 848.292 314.015 848.438C313.038 848.633 311.182 849.317 309.815 849.903C308.497 850.538 306.983 851.075 306.544 851.075C306.104 851.075 304.249 851.856 302.393 852.784C300.587 853.711 298.048 854.639 296.729 854.786C295.46 854.981 294.288 855.323 294.141 855.518C293.263 856.983 283.839 859.522 275.294 860.596C267.921 861.573 263.477 861.28 262.55 859.815C261.866 858.741 264.845 851.172 267.481 847.315C268.507 845.752 270.46 842.823 271.827 840.821C275.391 835.596 288.526 822.364 293.067 819.532C294.141 818.848 296.827 816.7 299.024 814.795C303.809 810.596 306.251 808.692 308.839 807.129C309.913 806.495 312.354 804.688 314.259 803.174C318.458 799.805 323.438 796.387 324.073 796.387C324.366 796.387 325.44 795.704 326.466 794.922C328.907 792.969 334.669 790.235 337.306 789.795C338.722 789.551 339.845 788.965 340.87 787.94C342.188 786.524 342.335 786.133 342.14 784.034C341.993 782.618 341.505 781.153 340.87 780.372C340.333 779.639 339.307 778.028 338.624 776.758C337.94 775.489 336.622 773.829 335.694 773.096C333.985 771.778 329.298 765.772 328.712 764.209C328.565 763.77 327.735 762.256 326.807 760.889C325.929 759.473 324.903 757.569 324.464 756.739C324.073 755.86 323.585 754.786 323.341 754.395C320.997 750.342 318.214 744.776 317.579 743.067C317.237 742.042 316.407 740.479 315.772 739.6C314.454 737.891 313.624 735.596 311.524 728.272C308.888 718.995 308.643 718.311 308.155 717.334C307.862 716.797 307.618 715.333 307.618 714.014C307.618 712.745 307.276 710.108 306.886 708.252C305.421 701.709 304.591 697.461 303.907 693.116C303.516 690.674 302.931 687.501 302.638 686.036C301.661 681.006 301.124 674.561 301.026 666.749C300.88 652.686 300.245 649.463 297.462 647.999C295.85 647.168 286.231 649.415 284.327 651.124C281.544 653.565 278.321 655.762 278.321 655.762L275.44 657.911L271.534 660.401L269.483 661.426L268.263 662.11C268.263 662.11 266.602 662.989 265.284 664.063C263.136 665.87 256.641 671.729 256.641 671.729L254.395 673.34C254.151 673.34 252.784 674.219 251.368 675.293C249.952 676.368 248.097 677.247 248.097 677.247C247.706 677.247 245.069 679.688 245.069 679.688C245.069 679.688 242.091 682.422 241.309 682.813L239.6 684.327L238.673 685.059C237.605 685.917 237.006 686.398 235.938 687.256L234.376 688.722L232.716 690.333C232.716 690.333 230.811 692.872 228.858 694.922C222.511 701.563 219.288 705.909 218.018 709.473C217.628 710.547 216.114 713.965 214.6 717.042C213.136 720.167 211.915 723.194 211.915 723.829C211.915 724.463 211.475 726.026 210.987 727.344C210.45 728.663 209.474 731.397 208.741 733.399C208.057 735.401 206.983 738.135 206.397 739.454C205.47 741.553 205.323 742.725 205.323 748.243C205.323 753.223 205.518 754.981 206.153 756.104C206.593 756.885 207.325 758.643 207.813 760.01C208.302 761.329 209.327 762.989 210.108 763.672C210.938 764.356 212.501 765.821 213.673 766.944C214.845 768.067 216.798 769.678 218.018 770.557C220.411 772.266 220.85 773.438 219.141 773.389C217.481 773.34 216.651 772.901 214.356 770.85C212.208 768.995 211.28 768.848 208.009 769.825C206.934 770.167 204.981 773.389 205.323 774.366C205.47 774.805 205.616 776.612 205.665 778.321C205.714 781.153 205.567 781.739 204.298 783.545C203.126 785.157 202.638 785.45 202.003 785.059C201.563 784.815 201.173 783.741 201.173 783.741L200.44 782.227L199.708 780.616C199.708 780.616 199.464 778.809 199.171 777.881C196.632 769.922 195.46 768.458 191.993 768.897C189.942 769.19 189.649 769.483 187.208 773.584C186.866 774.073 186.085 775.049 186.085 775.049C186.085 775.049 185.548 775.977 185.548 776.417C185.548 776.856 185.108 778.077 184.62 779.151L183.399 781.885C183.204 782.569 182.716 782.715 181.544 782.618C180.274 782.52 179.737 782.081 178.858 780.469C177.003 777.1 177.54 772.95 180.47 768.946C181.349 767.676 182.13 765.43 182.13 765.43L182.569 763.965C182.569 763.965 183.155 761.426 183.35 758.692C183.546 755.909 183.888 753.418 184.132 753.125C184.376 752.833 184.522 749.512 184.474 745.801C184.376 742.042 184.62 737.696 184.913 736.084C185.255 734.473 185.938 730.958 186.475 728.272C187.013 725.586 187.696 721.973 187.94 720.215C188.331 717.823 189.356 715.284 192.188 709.717C194.239 705.665 196.827 701.075 196.827 701.075L197.755 699.366L199.464 696.485L201.173 693.213C201.173 693.213 202.149 691.114 203.37 689.551C204.591 688.038 205.567 686.133 205.567 686.133L206.007 685.547C206.007 685.547 207.179 684.278 208.057 682.715C208.936 681.202 209.913 679.688 210.206 679.444C211.182 678.565 217.042 670.752 220.509 665.625C221.143 664.747 222.169 663.282 222.901 662.452C223.585 661.573 225.196 659.473 226.515 657.715C229.298 653.956 233.936 649.219 236.329 647.706C237.257 647.071 238.917 645.752 240.04 644.727C244.141 640.821 248.829 637.11 255.274 632.715C256.153 632.081 258.106 630.42 259.669 629.053C261.182 627.637 262.989 626.465 262.989 626.465L264.161 625.49L272.413 619.629L274.464 618.506C274.464 618.506 280.421 615.088 285.89 612.793C300.44 606.739 305.665 603.077 305.665 598.926C305.665 596.876 304.932 594.483 303.761 592.286C302.54 590.186 301.417 580.079 301.026 568.36C300.782 561.133 300.929 557.325 301.759 549.317C302.296 543.799 302.931 538.184 303.175 536.866C304.298 530.469 304.688 528.711 305.909 524.415C306.593 521.875 307.618 519.043 308.155 518.165C308.643 517.286 309.083 516.211 309.083 515.772C309.083 515.333 309.62 514.307 310.255 513.477C310.89 512.647 311.915 510.987 312.55 509.864C315.968 503.614 317.335 501.514 318.995 499.756C319.727 498.926 320.704 497.51 321.192 496.583C321.925 495.02 322.462 494.727 326.661 493.36C330.665 492.042 331.495 491.553 332.96 489.747C334.522 487.891 334.669 487.452 334.62 484.766C334.522 482.422 334.278 481.543 333.399 480.616C331.641 478.711 330.909 478.516 328.077 479.053C319.044 480.762 313.868 481.592 311.28 481.69C308.692 481.788 301.954 483.008 299.806 483.79C299.415 483.936 297.852 484.083 296.388 484.131C294.923 484.18 292.725 484.571 291.505 485.01C290.284 485.401 286.573 486.084 283.204 486.573C279.884 487.012 276.954 487.501 276.71 487.647C276.466 487.793 273.829 487.842 270.85 487.745C267.823 487.696 264.503 487.647 263.429 487.647C262.354 487.696 258.106 487.256 253.956 486.719C247.999 485.987 245.85 485.499 243.458 484.376C239.161 482.325 232.911 478.077 228.663 474.268C224.659 470.655 218.751 463.672 218.751 462.501C218.751 462.11 218.116 460.743 217.384 459.522C216.651 458.301 215.528 456.055 214.893 454.59C214.307 453.126 213.38 451.124 212.891 450.147C211.231 447.12 210.694 440.43 211.378 432.276C211.72 428.321 212.159 424.756 212.354 424.366C212.599 423.926 212.94 421.973 213.087 420.02C213.282 418.067 213.77 415.723 214.161 414.795C214.552 413.868 214.845 412.452 214.845 411.622C214.845 409.229 217.677 401.075 220.509 395.264C221.974 392.286 223.145 389.6 223.145 389.258C223.145 388.917 225.099 385.254 227.491 381.202C229.835 377.1 232.325 372.852 232.96 371.729C238.38 362.208 244.19 356.153 244.19 356.153L248.292 350.879C248.292 350.879 251.71 346.68 253.956 344.581C256.202 342.432 259.815 339.014 261.964 336.963C264.112 334.913 267.091 332.569 268.556 331.739C270.02 330.86 272.608 329.004 274.268 327.588C278.761 323.633 280.616 322.364 284.913 320.264C287.061 319.19 289.503 317.872 290.284 317.335C291.114 316.846 292.432 316.163 293.214 315.821C295.509 314.942 300.929 312.012 302.003 311.084C302.931 310.303 304.298 309.62 312.501 305.811C314.503 304.883 317.042 303.663 318.067 303.126C319.141 302.54 323.292 301.026 327.296 299.708C331.3 298.389 335.743 296.827 337.159 296.143C340.04 294.825 342.384 294.19 345.948 293.702C347.315 293.506 350.684 292.725 353.468 291.944C356.3 291.163 359.132 290.528 359.815 290.528C360.987 290.528 366.309 289.405 375.733 287.061C377.882 286.524 380.958 285.938 382.569 285.694C393.165 284.131 395.411 283.838 396.729 283.838C397.559 283.838 400.294 283.497 402.833 283.057C405.372 282.569 409.473 282.032 411.866 281.788C422.413 280.713 426.759 280.176 430.323 279.493C433.35 278.907 439.698 278.711 461.231 278.614C476.124 278.516 488.477 278.321 488.624 278.126C488.917 277.833 495.411 277.93 525.391 278.565Z" fill="black"/>
</svg>
