<svg width="25" height="25" viewBox="0 0 25 25" fill="none" xmlns="http://www.w3.org/2000/svg">
<g clip-path="url(#clip0_916_83)">
<path d="M2.38556 5.98447C2.38556 4.61413 3.50665 3.5 4.88556 3.5H19.8856C21.2645 3.5 22.3856 4.61413 22.3856 5.98447V16.3157H19.8856V10.9146V5.98447H12.3856H4.88556V10.9146V16.3157H2.38556V5.98447ZM0 18.7174C0 18.3059 0.672894 17.6304 1.08696 17.6304H12.3856H23.913C24.3271 17.6304 25 18.3059 25 18.7174C25 20.3634 23.3954 21.4348 21.7391 21.4348H13.0435H2.71739C1.06114 21.4348 0 20.3634 0 18.7174ZM10.8621 10.3711L9.65118 11.5745L10.8621 12.7779C11.2293 13.1429 11.2293 13.7329 10.8621 14.0939C10.4949 14.455 9.90118 14.4589 9.5379 14.0939L7.6629 12.2306C7.29572 11.8657 7.29572 11.2756 7.6629 10.9146L9.5379 9.05124C9.90509 8.68633 10.4988 8.68633 10.8621 9.05124C11.2254 9.41615 11.2293 10.0062 10.8621 10.3672V10.3711ZM15.2371 9.05124L17.1121 10.9146C17.4793 11.2795 17.4793 11.8696 17.1121 12.2306L15.2371 14.0939C14.8699 14.4589 14.2762 14.4589 13.9129 14.0939C13.5496 13.729 13.5457 13.139 13.9129 12.7779L15.1238 11.5745L13.9129 10.3711C13.5457 10.0062 13.5457 9.41615 13.9129 9.05512C14.2801 8.6941 14.8738 8.69022 15.2371 9.05512V9.05124Z" fill="#A1D0DA"/>
</g>
<defs>
<clipPath id="clip0_916_83">
<rect width="25" height="25" fill="white"/>
</clipPath>
</defs>
</svg>
