<svg width="25" height="25" viewBox="0 0 25 25" fill="none" xmlns="http://www.w3.org/2000/svg">
<path d="M12.5 1C10.9898 1 9.49438 1.29033 8.09914 1.8544C6.7039 2.41847 5.43615 3.24525 4.36827 4.28752C2.2116 6.39248 1 9.24743 1 12.2243C1 17.1854 4.3005 21.3945 8.866 22.8874C9.441 22.9772 9.625 22.6292 9.625 22.3262V20.4293C6.4395 21.1027 5.761 18.9252 5.761 18.9252C5.232 17.6232 4.4845 17.2752 4.4845 17.2752C3.438 16.5793 4.565 16.6018 4.565 16.6018C5.715 16.6803 6.3245 17.7579 6.3245 17.7579C7.325 19.464 9.0155 18.9589 9.671 18.6895C9.7745 17.9599 10.0735 17.466 10.3955 17.1854C7.8425 16.9048 5.163 15.9395 5.163 11.6631C5.163 10.4172 5.6 9.41822 6.3475 8.6213C6.2325 8.34069 5.83 7.17336 6.4625 5.65808C6.4625 5.65808 7.4285 5.35503 9.625 6.80296C10.5335 6.55603 11.5225 6.43256 12.5 6.43256C13.4775 6.43256 14.4665 6.55603 15.375 6.80296C17.5715 5.35503 18.5375 5.65808 18.5375 5.65808C19.17 7.17336 18.7675 8.34069 18.6525 8.6213C19.4 9.41822 19.837 10.4172 19.837 11.6631C19.837 15.9508 17.146 16.8936 14.5815 17.1742C14.9955 17.5222 15.375 18.2068 15.375 19.2507V22.3262C15.375 22.6292 15.559 22.9884 16.1455 22.8874C20.711 21.3833 24 17.1854 24 12.2243C24 10.7503 23.7025 9.29074 23.1246 7.92894C22.5467 6.56715 21.6996 5.32979 20.6317 4.28752C19.5639 3.24525 18.2961 2.41847 16.9009 1.8544C15.5056 1.29033 14.0102 1 12.5 1Z" fill="#A1D0DA"/>
</svg>
