<svg width="23" height="23" viewBox="0 0 23 23" fill="none" xmlns="http://www.w3.org/2000/svg">
<path fill-rule="evenodd" clip-rule="evenodd" d="M11.5 0C5.14933 0 0 5.27796 0 11.7933C0 17.0045 3.29598 21.4199 7.86518 22.9807C8.44018 23.0885 8.65067 22.724 8.65067 22.4108C8.65067 22.1284 8.6404 21.3891 8.63527 20.4033C5.43683 21.117 4.75915 18.822 4.75915 18.822C4.23549 17.4614 3.4808 17.0969 3.4808 17.0969C2.43862 16.3627 3.55781 16.3781 3.55781 16.3781C4.71295 16.4602 5.31875 17.5949 5.31875 17.5949C6.34554 19.397 8.00893 18.8785 8.66607 18.5755C8.76875 17.8157 9.06652 17.292 9.39509 16.9993C6.84353 16.7016 4.15848 15.6901 4.15848 11.172C4.15848 9.88333 4.60513 8.83082 5.33929 8.00935C5.22121 7.71157 4.82589 6.51016 5.45223 4.88776C5.45223 4.88776 6.41741 4.56944 8.61473 6.09429C9.53371 5.83245 10.5143 5.7041 11.4949 5.69896C12.4703 5.7041 13.456 5.83245 14.375 6.09429C16.5723 4.56944 17.5324 4.88776 17.5324 4.88776C18.1587 6.51016 17.7634 7.71157 17.6453 8.00935C18.3795 8.83596 18.8261 9.88847 18.8261 11.172C18.8261 15.7004 16.1359 16.6964 13.5741 16.9891C13.9848 17.3536 14.3545 18.0724 14.3545 19.1711C14.3545 20.7473 14.3391 22.0206 14.3391 22.4056C14.3391 22.7188 14.5444 23.0885 15.1297 22.9704C19.7092 21.4147 23 16.9993 23 11.7933C23 5.27796 17.8507 0 11.5 0Z" fill="#A1D0DA"/>
</svg>
