<svg width="25" height="25" viewBox="0 0 25 25" fill="none" xmlns="http://www.w3.org/2000/svg">
<path d="M9.86273 20L3.76424 13.9775C3.1874 13.4179 2.73303 12.7454 2.42974 12.0021C2.12646 11.2589 1.98083 10.4611 2.00202 9.65905C2.02322 8.85696 2.21078 8.06793 2.55289 7.34166C2.89501 6.61538 3.38426 5.96758 3.98986 5.43906C4.59545 4.91054 5.30426 4.51274 6.07165 4.27071C6.83904 4.02869 7.64839 3.94768 8.44873 4.03279C9.24907 4.1179 10.0231 4.36728 10.722 4.76524C11.4209 5.16319 12.0296 5.70109 12.5097 6.34507C13.3707 5.20342 14.6234 4.41784 16.0285 4.13825C17.4336 3.85866 18.8928 4.10466 20.1275 4.82928C21.3622 5.5539 22.2861 6.7064 22.7227 8.06682C23.1593 9.42723 23.0781 10.9003 22.4946 12.2048" stroke="#A1D0DA" stroke-width="2.3" stroke-linecap="round" stroke-linejoin="round"/>
<path d="M14.2613 17.108L14.113 17.1281H13.7568C13.6261 17.1281 13.4982 17.0901 13.3887 17.0187C13.2716 16.9424 13.1811 16.8315 13.1298 16.7014L13.0904 16.6013C13.031 16.4508 13.0086 16.2883 13.0251 16.1273L13.0363 16.0171C13.0582 15.803 13.1269 15.5964 13.2376 15.4118L13.299 15.3095C13.468 15.0278 13.712 14.8031 13.9776 14.6097C14.1167 14.5084 14.1793 14.4274 14.3217 14.3315C14.5492 14.1785 14.6934 14.1193 14.9478 14.0292C15.186 13.9448 15.3267 13.9218 15.5739 13.878C15.8434 13.8302 15.9968 13.8164 16.2696 13.8024C16.2917 13.8013 16.315 13.8004 16.339 13.7996C16.7099 13.788 17.0818 13.7815 17.4522 13.8024C17.8717 13.8261 18.2953 13.8571 18.7043 13.9536C18.8577 13.9898 19.0564 14.066 19.1884 14.12C19.2837 14.159 19.3757 14.2049 19.4661 14.2541L19.5959 14.3246C19.7892 14.4296 19.9694 14.5573 20.1325 14.705C20.2469 14.8086 20.3524 14.9215 20.4479 15.0426L20.5219 15.1363C20.6544 15.3043 20.7616 15.4908 20.8401 15.6899L20.8946 15.8279C20.9184 15.8883 20.9354 15.9511 20.9452 16.0153L20.9589 16.1042C20.9852 16.2758 20.9421 16.4509 20.8392 16.5907C20.7626 16.6947 20.6569 16.7737 20.5355 16.8176L20.4574 16.8459C20.3561 16.8826 20.2493 16.9014 20.1416 16.9014H20.0431C19.8935 16.9014 19.7447 16.8788 19.6018 16.8344L19.3304 16.7502L19.2877 16.7316C19.2289 16.7061 19.1791 16.782 19.2261 16.8258L19.2556 16.8533C19.3974 16.9853 19.5173 17.1389 19.6109 17.3085L19.6339 17.3502C19.6634 17.4036 19.6888 17.4592 19.7099 17.5165L19.7148 17.5296C19.7821 17.7124 19.8019 17.9094 19.7723 18.102L19.7518 18.2359C19.7492 18.2531 19.7441 18.2699 19.7368 18.2857C19.7021 18.3612 19.7213 18.4505 19.784 18.505L20.0261 18.7154L20.2348 18.9421L20.4435 19.1689L20.6522 19.3956L20.7499 19.5231C20.8945 19.7116 20.8826 19.9767 20.7217 20.1515C20.6674 20.2105 20.6411 20.2485 20.5826 20.3026C20.462 20.4142 20.3931 20.5339 20.2348 20.5294C20.1489 20.5269 20.0868 20.5198 20.0261 20.4538C19.9831 20.4071 19.9565 20.3686 19.9565 20.3026C19.9565 20.2366 19.9831 20.1981 20.0261 20.1515C20.069 20.1048 20.1051 20.0852 20.1652 20.0759C20.2502 20.0627 20.288 20.149 20.3739 20.1515C20.5323 20.156 20.6854 20.0922 20.7217 19.9247C20.7616 19.7407 20.5706 19.6758 20.4435 19.5468C20.3003 19.4015 20.2095 19.3192 20.0261 19.2444C19.859 19.1764 19.705 19.3432 19.7324 19.5216L19.7478 19.6224L19.7594 19.6852C19.7978 19.8938 19.801 20.1073 19.7688 20.317C19.7548 20.4081 19.7343 20.498 19.7072 20.5861L19.6246 20.8555C19.614 20.8899 19.5992 20.9228 19.5804 20.9534C19.4472 21.1704 19.5329 21.4551 19.7637 21.5625L19.8174 21.5875L20.0123 21.6722C20.114 21.7165 20.212 21.7692 20.3049 21.8298L20.4786 21.943C20.5015 21.9579 20.5224 21.9756 20.5409 21.9957L20.6558 22.1206C20.7279 22.199 20.7155 22.3227 20.6293 22.3851C20.599 22.4071 20.5624 22.419 20.525 22.419H20.2455C20.192 22.419 20.1387 22.4148 20.0859 22.4066L18.7514 22.1995C18.7201 22.1946 18.6884 22.1922 18.6568 22.1922C18.508 22.1922 18.3643 22.1385 18.252 22.0409L18.0783 21.8899L17.6609 21.512L17.313 21.2096L17.2405 21.1571C17.1553 21.0954 17.0452 21.0799 16.9463 21.1157C16.9128 21.1278 16.8815 21.1455 16.8539 21.1681L16.7 21.2935C16.645 21.3383 16.5933 21.387 16.5452 21.4392L16.5151 21.4719C16.4443 21.5489 16.3678 21.6205 16.2863 21.6861L15.8036 22.0749C15.8174 22.0663 15.8311 22.0576 15.8448 22.0488L15.8014 22.0767L15.8036 22.0749C15.5893 22.209 15.3623 22.3218 15.1259 22.4117L14.2282 22.7531C14.1521 22.782 14.0713 22.7969 13.9898 22.7969H13.7364C13.7104 22.7969 13.6856 22.786 13.668 22.7669C13.6426 22.7393 13.6363 22.6991 13.652 22.665L13.6876 22.5875C13.693 22.5759 13.6993 22.5648 13.7065 22.5544L13.9043 22.2678L13.9472 22.2212C14.1035 22.0514 14.2811 21.9025 14.4755 21.7782C14.622 21.6723 14.657 21.4686 14.5543 21.3198C14.5385 21.2968 14.5256 21.272 14.5159 21.2458L14.3913 20.9073L14.2522 20.3782L14.1826 19.8491V19.3956C14.1826 19.3084 14.0792 19.2625 14.0145 19.3211L13.7652 19.5468C13.58 19.748 13.4115 19.9639 13.2612 20.1924L13.146 20.3677C13.2218 20.2524 13.3875 20.243 13.4758 20.349L13.5263 20.4096C13.5792 20.473 13.6757 20.4754 13.7316 20.4147C13.7533 20.3911 13.7826 20.3757 13.8146 20.3748C13.8831 20.3729 14.0032 20.3808 14.0435 20.4538C14.1011 20.5581 14.07 20.6935 13.9739 20.7561C13.904 20.8017 13.8462 20.7661 13.7652 20.7561C13.5597 20.7307 13.4387 20.6713 13.2783 20.5294C13.2187 20.4767 13.1935 20.4372 13.1391 20.3782C13.1088 20.3526 13.0931 20.3356 13.0696 20.3026C13.0174 20.2298 13.0975 20.0152 13.1344 19.9336C13.1358 19.9306 13.1373 19.9276 13.1391 19.9247C13.237 19.7685 13.2986 19.6849 13.4174 19.5468C13.4698 19.4858 13.5022 19.4546 13.5565 19.3956C13.6652 19.2775 13.7171 19.2007 13.8348 19.0933C13.8808 19.0512 13.9379 19.0065 13.995 18.9647C14.1429 18.8563 14.2071 18.6704 14.1826 18.4886C14.159 18.3134 14.1652 18.2112 14.1826 18.0351C14.1974 17.8855 14.2061 17.7991 14.2522 17.6572C14.2926 17.5327 14.3221 17.4634 14.3913 17.3549C14.4568 17.2521 14.3821 17.0916 14.2613 17.108Z" fill="#A1D0DA"/>
<path d="M13.1391 20.3782C13.1761 20.3219 13.2188 20.2571 13.2612 20.1924C13.4115 19.9639 13.58 19.748 13.7652 19.5468V19.5468L14.0145 19.3211C14.0792 19.2625 14.1826 19.3084 14.1826 19.3956V19.3956V19.8491L14.2522 20.3782L14.3913 20.9073L14.5159 21.2458C14.5256 21.272 14.5385 21.2968 14.5543 21.3198V21.3198C14.657 21.4686 14.622 21.6723 14.4755 21.7782V21.7782V21.7782C14.2811 21.9025 14.1035 22.0514 13.9472 22.2212L13.9043 22.2678L13.7065 22.5544C13.6993 22.5649 13.693 22.5759 13.6876 22.5875L13.652 22.665C13.6363 22.6991 13.6426 22.7393 13.668 22.7669V22.7669C13.6856 22.786 13.7104 22.7969 13.7364 22.7969H13.9898C14.0713 22.7969 14.1521 22.782 14.2282 22.7531L15.1259 22.4117C15.3775 22.316 15.6185 22.1944 15.8448 22.0487V22.0487L15.8014 22.0767L16.2863 21.6861C16.3678 21.6205 16.4443 21.5489 16.5151 21.4719L16.5452 21.4392C16.5933 21.387 16.645 21.3383 16.7 21.2935L16.8539 21.1681C16.8815 21.1455 16.9128 21.1278 16.9463 21.1157V21.1157C17.0452 21.0799 17.1553 21.0954 17.2405 21.1571L17.313 21.2096L17.6609 21.512L18.0783 21.8899L18.252 22.0409C18.3643 22.1385 18.508 22.1922 18.6568 22.1922V22.1922C18.6884 22.1922 18.7201 22.1946 18.7514 22.1995L20.0859 22.4066C20.1387 22.4148 20.192 22.419 20.2455 22.419H20.525C20.5624 22.419 20.599 22.4071 20.6293 22.3851V22.3851C20.7155 22.3227 20.7279 22.199 20.6558 22.1206L20.5409 21.9957C20.5224 21.9756 20.5015 21.9579 20.4786 21.943L20.3049 21.8298C20.212 21.7692 20.114 21.7165 20.0123 21.6722L19.8174 21.5875L19.7637 21.5625C19.5329 21.4551 19.4472 21.1704 19.5804 20.9534V20.9534C19.5992 20.9228 19.614 20.8899 19.6246 20.8555L19.7072 20.5861C19.7343 20.498 19.7548 20.4081 19.7688 20.317V20.317C19.801 20.1073 19.7978 19.8938 19.7594 19.6852L19.7478 19.6224L19.7324 19.5216C19.705 19.3432 19.859 19.1764 20.0261 19.2444V19.2444C20.2095 19.3192 20.3003 19.4015 20.4435 19.5468C20.5706 19.6758 20.7616 19.7407 20.7217 19.9247C20.6854 20.0922 20.5323 20.156 20.3739 20.1515C20.288 20.149 20.2502 20.0627 20.1652 20.0759C20.1051 20.0852 20.069 20.1048 20.0261 20.1515C19.9831 20.1981 19.9565 20.2366 19.9565 20.3026C19.9565 20.3686 19.9831 20.4071 20.0261 20.4538C20.0868 20.5198 20.1489 20.5269 20.2348 20.5294C20.3931 20.5339 20.462 20.4142 20.5826 20.3026C20.6411 20.2485 20.6674 20.2105 20.7217 20.1515V20.1515C20.8826 19.9767 20.8945 19.7116 20.7499 19.5231L20.6522 19.3956L20.4435 19.1689L20.2348 18.9421L20.0261 18.7154L19.784 18.505C19.7213 18.4505 19.7021 18.3612 19.7368 18.2857V18.2857C19.7441 18.2699 19.7492 18.2531 19.7518 18.2359L19.7723 18.102C19.8019 17.9094 19.7821 17.7124 19.7148 17.5296L19.7099 17.5165C19.6888 17.4592 19.6634 17.4036 19.6339 17.3502L19.6109 17.3085C19.5173 17.1389 19.3974 16.9853 19.2556 16.8533L19.2261 16.8258V16.8258C19.1791 16.782 19.2289 16.7061 19.2877 16.7316L19.3304 16.7502L19.6018 16.8344C19.7447 16.8788 19.8935 16.9014 20.0431 16.9014H20.1416C20.2493 16.9014 20.3561 16.8826 20.4574 16.8459L20.5355 16.8176C20.6569 16.7737 20.7626 16.6947 20.8392 16.5907V16.5907C20.9421 16.4509 20.9852 16.2758 20.9589 16.1042L20.9452 16.0153C20.9354 15.9511 20.9184 15.8883 20.8946 15.8279L20.8401 15.6899C20.7616 15.4908 20.6544 15.3043 20.5219 15.1363L20.4479 15.0426C20.3524 14.9215 20.2469 14.8086 20.1325 14.705V14.705C19.9694 14.5573 19.7892 14.4296 19.5959 14.3246L19.4661 14.2541C19.3757 14.2049 19.2837 14.159 19.1884 14.12C19.0564 14.066 18.8577 13.9898 18.7043 13.9536V13.9536C18.2953 13.8571 17.8717 13.8261 17.4522 13.8024V13.8024V13.8024C17.0818 13.7815 16.7099 13.788 16.339 13.7996C16.315 13.8004 16.2917 13.8013 16.2696 13.8024C15.9968 13.8164 15.8434 13.8302 15.5739 13.878C15.3267 13.9218 15.186 13.9448 14.9478 14.0292C14.6934 14.1193 14.5492 14.1785 14.3217 14.3315C14.1793 14.4274 14.1167 14.5084 13.9776 14.6097V14.6097C13.712 14.8031 13.468 15.0278 13.299 15.3095L13.2376 15.4118C13.1269 15.5964 13.0582 15.803 13.0363 16.0171L13.0251 16.1273C13.0086 16.2883 13.031 16.4508 13.0904 16.6013L13.1298 16.7014C13.1811 16.8315 13.2716 16.9424 13.3887 17.0187V17.0187C13.4982 17.0901 13.6261 17.1281 13.7568 17.1281H14.113L14.2613 17.108C14.3821 17.0916 14.4568 17.2521 14.3913 17.3549V17.3549C14.3221 17.4634 14.2926 17.5327 14.2522 17.6572C14.2061 17.7991 14.1974 17.8855 14.1826 18.0351C14.1652 18.2112 14.159 18.3134 14.1826 18.4886V18.4886C14.2071 18.6704 14.1429 18.8563 13.995 18.9647C13.9379 19.0065 13.8808 19.0512 13.8348 19.0933C13.7171 19.2007 13.6652 19.2775 13.5565 19.3956C13.5022 19.4546 13.4698 19.4858 13.4174 19.5468C13.2986 19.6849 13.237 19.7685 13.1391 19.9247M13.1391 20.3782C13.1935 20.4372 13.2187 20.4767 13.2783 20.5294C13.4387 20.6713 13.5597 20.7307 13.7652 20.7561C13.8462 20.7661 13.904 20.8017 13.9739 20.7561C14.07 20.6935 14.1011 20.5581 14.0435 20.4538C14.0032 20.3808 13.8831 20.3729 13.8146 20.3748C13.7826 20.3757 13.7533 20.3911 13.7316 20.4147V20.4147C13.6757 20.4754 13.5792 20.473 13.5263 20.4096L13.4758 20.349C13.3875 20.243 13.2218 20.2524 13.146 20.3677C13.1437 20.3713 13.1414 20.3748 13.1391 20.3782ZM13.1391 20.3782C13.1391 20.2011 13.1391 20.1018 13.1391 19.9247M13.1391 20.3782C13.1088 20.3526 13.0931 20.3356 13.0696 20.3026V20.3026C13.0174 20.2298 13.0975 20.0152 13.1344 19.9336C13.1358 19.9306 13.1373 19.9276 13.1391 19.9247" stroke="#A1D0DA" stroke-width="0.4"/>
</svg>
