<svg width="23" height="23" viewBox="0 0 23 23" fill="none" xmlns="http://www.w3.org/2000/svg">
<g clip-path="url(#clip0_837_20)">
<path d="M14.8334 22V13.158C14.8334 12.8649 14.7164 12.5837 14.508 12.3765C14.2996 12.1692 14.017 12.0527 13.7223 12.0527H9.27786C8.98317 12.0527 8.70056 12.1692 8.49219 12.3765C8.28381 12.5837 8.16675 12.8649 8.16675 13.158V22" stroke="#A1D0DA" stroke-width="2" stroke-linecap="round" stroke-linejoin="round"/>
<path d="M1.5 9.84148C1.49992 9.51993 1.57037 9.20223 1.70643 8.91054C1.84249 8.61886 2.04089 8.36021 2.28778 8.15265L10.0656 1.52221C10.4667 1.18501 10.9748 1 11.5 1C12.0252 1 12.5333 1.18501 12.9344 1.52221L20.7122 8.15265C20.9591 8.36021 21.1575 8.61886 21.2936 8.91054C21.4296 9.20223 21.5001 9.51993 21.5 9.84148V19.7888C21.5 20.3751 21.2659 20.9373 20.8491 21.3519C20.4324 21.7664 19.8671 21.9993 19.2778 21.9993H3.72222C3.13285 21.9993 2.56762 21.7664 2.15087 21.3519C1.73413 20.9373 1.5 20.3751 1.5 19.7888V9.84148Z" stroke="#A1D0DA" stroke-width="2" stroke-linecap="round" stroke-linejoin="round"/>
</g>
<defs>
<clipPath id="clip0_837_20">
<rect width="23" height="23" fill="white"/>
</clipPath>
</defs>
</svg>
