<svg width="25" height="25" viewBox="0 0 25 25" fill="none" xmlns="http://www.w3.org/2000/svg">
<path d="M12.5 6.52344C9.25386 6.52344 6.56421 9.16671 6.56421 12.4592C6.56421 15.7517 9.20749 18.395 12.5 18.395C15.7925 18.395 18.4358 15.7053 18.4358 12.4592C18.4358 9.21309 15.7461 6.52344 12.5 6.52344ZM12.5 16.2618C10.4132 16.2618 8.69738 14.546 8.69738 12.4592C8.69738 10.3724 10.4132 8.65661 12.5 8.65661C14.5868 8.65661 16.3026 10.3724 16.3026 12.4592C16.3026 14.546 14.5868 16.2618 12.5 16.2618Z" fill="#A1D0DA"/>
<path d="M18.6671 7.7209C19.4098 7.7209 20.0119 7.1188 20.0119 6.37607C20.0119 5.63335 19.4098 5.03125 18.6671 5.03125C17.9244 5.03125 17.3223 5.63335 17.3223 6.37607C17.3223 7.1188 17.9244 7.7209 18.6671 7.7209Z" fill="#A1D0DA"/>
<path d="M22.1452 2.90121C20.9395 1.64919 19.2238 1 17.2762 1H7.72379C3.68952 1 1 3.68952 1 7.72379V17.2298C1 19.2238 1.64919 20.9395 2.94758 22.1915C4.1996 23.3972 5.86895 24 7.77016 24H17.2298C19.2238 24 20.8931 23.3508 22.0988 22.1915C23.3508 20.9859 24 19.2702 24 17.2762V7.72379C24 5.77621 23.3508 4.10685 22.1452 2.90121ZM21.9597 17.2762C21.9597 18.7137 21.4496 19.873 20.6149 20.6613C19.7802 21.4496 18.621 21.8669 17.2298 21.8669H7.77016C6.37903 21.8669 5.21976 21.4496 4.38508 20.6613C3.5504 19.8266 3.13306 18.6673 3.13306 17.2298V7.72379C3.13306 6.33266 3.5504 5.17339 4.38508 4.33871C5.17339 3.5504 6.37903 3.13306 7.77016 3.13306H17.3226C18.7137 3.13306 19.873 3.5504 20.7077 4.38508C21.496 5.21976 21.9597 6.37903 21.9597 7.72379V17.2762Z" fill="#A1D0DA"/>
</svg>
