<svg width="23" height="23" viewBox="0 0 23 23" fill="none" xmlns="http://www.w3.org/2000/svg">
<path d="M11.4636 5.50366C8.2279 5.50366 5.54688 8.13846 5.54688 11.4204C5.54688 14.7023 8.18167 17.3371 11.4636 17.3371C14.7456 17.3371 17.3804 14.6561 17.3804 11.4204C17.3804 8.18468 14.6993 5.50366 11.4636 5.50366ZM11.4636 15.2108C9.38351 15.2108 7.6732 13.5005 7.6732 11.4204C7.6732 9.3403 9.38351 7.62999 11.4636 7.62999C13.5437 7.62999 15.254 9.3403 15.254 11.4204C15.254 13.5005 13.5437 15.2108 11.4636 15.2108Z" fill="#A1D0DA"/>
<path d="M17.612 6.70495C18.3523 6.70495 18.9525 6.10478 18.9525 5.36444C18.9525 4.62409 18.3523 4.02393 17.612 4.02393C16.8717 4.02393 16.2715 4.62409 16.2715 5.36444C16.2715 6.10478 16.8717 6.70495 17.612 6.70495Z" fill="#A1D0DA"/>
<path d="M21.0784 1.89521C19.8765 0.647143 18.1662 0 16.2248 0H6.70256C2.68102 0 0 2.68102 0 6.70255V16.1786C0 18.1662 0.647143 19.8765 1.94143 21.1246C3.18949 22.3264 4.85357 22.9274 6.74878 22.9274H16.1786C18.1662 22.9274 19.8303 22.2802 21.0322 21.1246C22.2802 19.9228 22.9274 18.2125 22.9274 16.2248V6.70255C22.9274 4.76113 22.2802 3.09704 21.0784 1.89521ZM20.8935 16.2248C20.8935 17.6578 20.385 18.8134 19.553 19.5992C18.7209 20.385 17.5653 20.801 16.1786 20.801H6.74878C5.36204 20.801 4.20643 20.385 3.37439 19.5992C2.54235 18.7672 2.12633 17.6115 2.12633 16.1786V6.70255C2.12633 5.31582 2.54235 4.16021 3.37439 3.32817C4.16021 2.54235 5.36204 2.12633 6.74878 2.12633H16.271C17.6578 2.12633 18.8134 2.54235 19.6454 3.37439C20.4312 4.20643 20.8935 5.36204 20.8935 6.70255V16.2248Z" fill="#A1D0DA"/>
</svg>
