<svg width="23" height="23" viewBox="0 0 23 23" fill="none" xmlns="http://www.w3.org/2000/svg">
<path d="M5.59141 9.7178L3.16049 12.1487C2.16358 13.1456 1.60352 14.4977 1.60352 15.9076C1.60352 17.3174 2.16358 18.6696 3.16049 19.6665C4.15741 20.6634 5.50952 21.2234 6.91937 21.2234C8.32923 21.2234 9.68133 20.6634 10.6783 19.6665L13.9171 16.4258C14.5183 15.8246 14.9664 15.0879 15.224 14.2776C15.4815 13.4673 15.5409 12.6071 15.3972 11.7691C15.2535 10.9311 14.9108 10.1398 14.398 9.46161C13.8852 8.78343 13.2172 8.23817 12.4501 7.87158L11.4118 8.90986C11.3064 9.01546 11.2147 9.13392 11.1389 9.26245C11.7316 9.43284 12.2696 9.75497 12.6997 10.197C13.1298 10.639 13.437 11.1856 13.5911 11.7828C13.7452 12.38 13.7407 13.007 13.5782 13.6019C13.4157 14.1969 13.1007 14.7391 12.6644 15.175L9.42736 18.4138C8.76244 19.0787 7.8606 19.4523 6.92026 19.4523C5.97991 19.4523 5.07808 19.0787 4.41316 18.4138C3.74823 17.7489 3.37468 16.847 3.37468 15.9067C3.37468 14.9664 3.74823 14.0645 4.41316 13.3996L5.8182 11.9963C5.61996 11.2535 5.54337 10.4852 5.59141 9.7178Z" fill="#A1D0DA"/>
<path d="M8.90619 6.40155C8.30503 7.00279 7.85687 7.73948 7.59932 8.54977C7.34178 9.36006 7.28238 10.2203 7.4261 11.0583C7.56981 11.8963 7.91246 12.6876 8.42527 13.3658C8.93808 14.044 9.60609 14.5892 10.3732 14.9558L11.7464 13.5809C11.1457 13.4198 10.5979 13.1033 10.1582 12.6635C9.7185 12.2236 9.40232 11.6757 9.24143 11.0749C9.08055 10.4741 9.08063 9.84153 9.24167 9.24077C9.40271 8.64001 9.71903 8.09221 10.1589 7.65244L13.3959 4.41358C14.0609 3.74866 14.9627 3.37511 15.903 3.37511C16.8434 3.37511 17.7452 3.74866 18.4101 4.41358C19.0751 5.07851 19.4486 5.98034 19.4486 6.92068C19.4486 7.86103 19.0751 8.76286 18.4101 9.42778L17.0051 10.8311C17.2035 11.5752 17.2797 12.3459 17.2319 13.1114L19.6628 10.6804C20.6597 9.68353 21.2198 8.33142 21.2198 6.92157C21.2198 5.51172 20.6597 4.15961 19.6628 3.16269C18.6659 2.16577 17.3138 1.60571 15.9039 1.60571C14.4941 1.60571 13.142 2.16577 12.145 3.16269L8.90619 6.40155Z" fill="#A1D0DA"/>
</svg>
