<svg width="23" height="23" viewBox="0 0 23 23" fill="none" xmlns="http://www.w3.org/2000/svg">
<path d="M1 3.625C1 4.32119 1.27656 4.98887 1.76884 5.48116C2.26113 5.97344 2.92881 6.25 3.625 6.25C4.32119 6.25 4.98887 5.97344 5.48116 5.48116C5.97344 4.98887 6.25 4.32119 6.25 3.625C6.25 2.92881 5.97344 2.26113 5.48116 1.76884C4.98887 1.27656 4.32119 1 3.625 1C2.92881 1 2.26113 1.27656 1.76884 1.76884C1.27656 2.26113 1 2.92881 1 3.625ZM8.875 19.375C8.875 20.0712 9.15156 20.7389 9.64384 21.2312C10.1361 21.7234 10.8038 22 11.5 22C12.1962 22 12.8639 21.7234 13.3562 21.2312C13.8484 20.7389 14.125 20.0712 14.125 19.375C14.125 18.6788 13.8484 18.0111 13.3562 17.5188C12.8639 17.0266 12.1962 16.75 11.5 16.75C10.8038 16.75 10.1361 17.0266 9.64384 17.5188C9.15156 18.0111 8.875 18.6788 8.875 19.375ZM8.875 11.5C8.875 12.1962 9.15156 12.8639 9.64384 13.3562C10.1361 13.8484 10.8038 14.125 11.5 14.125C12.1962 14.125 12.8639 13.8484 13.3562 13.3562C13.8484 12.8639 14.125 12.1962 14.125 11.5C14.125 10.8038 13.8484 10.1361 13.3562 9.64384C12.8639 9.15156 12.1962 8.875 11.5 8.875C10.8038 8.875 10.1361 9.15156 9.64384 9.64384C9.15156 10.1361 8.875 10.8038 8.875 11.5ZM8.875 3.625C8.875 4.32119 9.15156 4.98887 9.64384 5.48116C10.1361 5.97344 10.8038 6.25 11.5 6.25C12.1962 6.25 12.8639 5.97344 13.3562 5.48116C13.8484 4.98887 14.125 4.32119 14.125 3.625C14.125 2.92881 13.8484 2.26113 13.3562 1.76884C12.8639 1.27656 12.1962 1 11.5 1C10.8038 1 10.1361 1.27656 9.64384 1.76884C9.15156 2.26113 8.875 2.92881 8.875 3.625ZM16.75 3.625C16.75 4.32119 17.0266 4.98887 17.5188 5.48116C18.0111 5.97344 18.6788 6.25 19.375 6.25C20.0712 6.25 20.7389 5.97344 21.2312 5.48116C21.7234 4.98887 22 4.32119 22 3.625C22 2.92881 21.7234 2.26113 21.2312 1.76884C20.7389 1.27656 20.0712 1 19.375 1C18.6788 1 18.0111 1.27656 17.5188 1.76884C17.0266 2.26113 16.75 2.92881 16.75 3.625Z" fill="#A1D0DA"/>
</svg>
